<svg width="24" height="24" viewBox="0 0 24 24" xmlns="http://www.w3.org/2000/svg">
<path d="M8.8139 3.32353C8.8139 4.0545 8.22134 4.64707 7.49037 4.64707C6.7594 4.64707 6.16683 4.0545 6.16683 3.32353C6.16683 2.59257 6.7594 2 7.49037 2C8.22134 2 8.8139 2.59257 8.8139 3.32353Z" />
<path d="M3.96578 6.35528C4.20935 6.1096 4.54148 5.97062 4.88838 5.97062C4.93513 5.97062 4.98187 5.97311 5.02616 5.97807L4.25855 8.30336C4.02975 8.99821 4.30038 9.76255 4.9179 10.1522L7.03866 11.4898L6.41375 13.6935C6.2932 14.1153 6.53676 14.5546 6.95501 14.6762C7.37326 14.7978 7.80872 14.5521 7.92928 14.1302L8.63537 11.6387C8.78053 11.1274 8.57141 10.5815 8.1261 10.3011L6.72866 9.42009L7.48889 7.37523L7.61436 7.68047C7.9834 8.56889 8.84204 9.14711 9.79662 9.14711H10.3207C10.7561 9.14711 11.108 8.79224 11.108 8.35299C11.108 7.91374 10.7561 7.55887 10.3207 7.55887H9.79662C9.47925 7.55887 9.1914 7.3653 9.07084 7.06999L8.91585 6.69774C8.55665 5.82669 7.83087 5.16161 6.93533 4.88367L5.73717 4.51143C5.46408 4.42705 5.17869 4.38238 4.89084 4.38238C4.12816 4.38238 3.395 4.68762 2.8562 5.23358L2.28542 5.80684C1.97788 6.11704 1.97788 6.62081 2.28542 6.93101C2.59295 7.24122 3.09239 7.24122 3.39992 6.93101L3.96824 6.35776L3.96578 6.35528ZM3.14404 11.1619L1.78729 11.3233C1.35182 11.3233 1 11.4907 1 11.93C1 12.3692 1.35182 12.7241 1.78729 12.7241L3.62873 12.5628C4.09618 12.5628 4.5464 11.9935 4.73584 11.5642L5.11857 10.6832L4.88484 10.5343C4.46555 10.2711 4.13925 9.88121 3.9524 9.42009L3.14404 11.1619Z"/>
<path d="M22.859 20.811C22.7741 20.5987 22.5618 20.4713 22.307 20.5562L21.203 20.9384C20.0565 21.3206 18.7826 21.1932 17.7211 20.6836L17.806 20.5987C18.5279 19.8769 18.5279 18.6879 17.806 17.9661L14.6214 14.7814C14.0694 14.1445 13.0503 14.1445 12.4558 14.739L10.5875 16.6073C10.4601 16.7347 10.3752 16.9045 10.3752 17.1168C10.3752 17.3291 10.4601 17.499 10.5875 17.6264C10.8423 17.8811 11.2244 17.9236 11.4792 17.7113L13.5598 16.3525L14.7488 17.5415L13.6448 18.6455C12.9654 18.603 12.2435 18.6879 11.5641 18.9002L10.4601 19.2824C10.2478 19.3673 10.1204 19.5796 10.2053 19.8344C10.2903 20.0467 10.5026 20.1741 10.7573 20.0892L11.8614 19.707C13.39 19.1975 15.0885 19.5372 16.2774 20.6412C17.254 21.5329 18.5279 22 19.8442 22C20.3962 22 20.9907 21.915 21.5427 21.7452L22.6467 21.363C22.8165 21.2781 22.9439 21.0233 22.859 20.811Z"/>
<path d="M19.5048 17.5415C20.6937 17.5415 21.6279 16.6073 21.6279 15.4184C21.6279 14.2294 20.6937 13.2953 19.5048 13.2953C18.3159 13.2953 17.3817 14.2294 17.3817 15.4184C17.3817 16.6073 18.3159 17.5415 19.5048 17.5415Z"/>
</svg>
