<svg width="16" height="17" viewBox="0 0 16 17" fill="none" xmlns="http://www.w3.org/2000/svg">
<path d="M12.6667 3.83334H12V2.50001C12 2.3232 11.9298 2.15363 11.8047 2.02861C11.6797 1.90358 11.5101 1.83334 11.3333 1.83334C11.1565 1.83334 10.987 1.90358 10.8619 2.02861C10.7369 2.15363 10.6667 2.3232 10.6667 2.50001V3.83334H5.33334V2.50001C5.33334 2.3232 5.2631 2.15363 5.13807 2.02861C5.01305 1.90358 4.84348 1.83334 4.66667 1.83334C4.48986 1.83334 4.32029 1.90358 4.19526 2.02861C4.07024 2.15363 4 2.3232 4 2.50001V3.83334H3.33334C2.8029 3.83334 2.2942 4.04406 1.91912 4.41913C1.54405 4.7942 1.33334 5.30291 1.33334 5.83334V6.50001H14.6667V5.83334C14.6667 5.30291 14.456 4.7942 14.0809 4.41913C13.7058 4.04406 13.1971 3.83334 12.6667 3.83334ZM1.33334 13.1667C1.33334 13.6971 1.54405 14.2058 1.91912 14.5809C2.2942 14.956 2.8029 15.1667 3.33334 15.1667H12.6667C13.1971 15.1667 13.7058 14.956 14.0809 14.5809C14.456 14.2058 14.6667 13.6971 14.6667 13.1667V7.83334H1.33334V13.1667Z" fill="#999999"/>
</svg>
