<svg width="17" height="16" viewBox="0 0 17 16" fill="none" xmlns="http://www.w3.org/2000/svg">
<path d="M4.66663 14C4.66663 14 3.66663 14 3.66663 13C3.66663 12 4.66663 9 8.66663 9C12.6666 9 13.6666 12 13.6666 13C13.6666 14 12.6666 14 12.6666 14H4.66663ZM8.66663 8C9.46228 8 10.2253 7.68393 10.7879 7.12132C11.3506 6.55871 11.6666 5.79565 11.6666 5C11.6666 4.20435 11.3506 3.44129 10.7879 2.87868C10.2253 2.31607 9.46228 2 8.66663 2C7.87098 2 7.10791 2.31607 6.54531 2.87868C5.9827 3.44129 5.66663 4.20435 5.66663 5C5.66663 5.79565 5.9827 6.55871 6.54531 7.12132C7.10791 7.68393 7.87098 8 8.66663 8Z" fill="#2E2E2E"/>
</svg>
