<svg width="24" height="24" viewBox="0 0 24 24"  xmlns="http://www.w3.org/2000/svg">
<path d="M20.4745 4.53452C20.1145 4.15202 19.6037 3.93151 19.0771 3.93151H17.4007C17.4074 3.63 17.4119 3.31953 17.4119 3H6.59934C6.59934 3.31948 6.60382 3.63 6.61059 3.93151H4.92289C4.39631 3.93151 3.88552 4.15202 3.52548 4.53452C3.1609 4.91931 2.97192 5.44577 3.00339 5.97905C3.30493 11.0055 5.89951 14.16 10.013 14.628L9.21638 17.4C8.26903 17.4 7.50169 18.1672 7.50169 19.1145V21H16.5118V19.1145C16.5118 18.1672 15.7445 17.4 14.7971 17.4L14.0005 14.628C18.105 14.1555 20.6973 11.0033 20.9966 5.97905C21.0281 5.44806 20.8391 4.92155 20.4745 4.53452ZM4.80136 5.87103C4.79912 5.82155 4.81938 5.7878 4.83736 5.76978C4.87111 5.73379 4.91164 5.73379 4.92289 5.73379H6.69612C6.96391 9.27305 7.74474 11.28 8.50311 12.414C5.61599 11.2035 4.92737 7.97029 4.80136 5.87103ZM15.5082 12.4073C16.2665 11.271 17.0451 9.26628 17.3129 5.73155H19.0794C19.0928 5.73155 19.1311 5.73155 19.1649 5.76754C19.1829 5.78555 19.2031 5.8193 19.2009 5.86879C19.0726 7.96805 18.3863 11.1923 15.5082 12.4073Z"/>
</svg>
