<svg width="24" height="24" viewBox="0 0 24 24" xmlns="http://www.w3.org/2000/svg">
<path d="M7.06462 14.0288L8.92744 15.8916V19.5961C8.92744 20.1575 9.38214 20.6122 9.94352 20.6122C10.5049 20.6122 10.9596 20.1575 10.9596 19.5961V15.4709C10.9596 15.2016 10.8529 14.9434 10.6624 14.7528L9.27036 13.3608L10.8334 11.9315L13.2889 14.3879C13.294 14.3925 13.2991 14.3974 13.3041 14.4023C13.3092 14.4071 13.3143 14.412 13.3194 14.4167L15.1144 16.0991C16.0128 16.9416 17.4065 16.956 18.3219 16.1321L19.9908 14.63C20.7359 13.9594 21.1034 12.9662 20.9747 11.9721L19.9265 3.88573C19.8545 3.32859 19.3448 2.93655 18.7884 3.00852C18.2321 3.08049 17.8393 3.59022 17.9112 4.14652L18.7173 10.3642L17.2694 8.75536L17.5581 6.16092C17.62 5.60293 17.2178 5.10082 16.6598 5.03816C16.1026 4.97634 15.5997 5.37854 15.5378 5.93569L15.1992 8.98467C15.1678 9.27256 15.2601 9.56044 15.454 9.77636L17.0476 11.5469L15.1136 13.3132L14.714 12.938L11.0628 9.28689C10.1712 8.39527 8.7376 8.35717 7.80032 9.20137L7.74443 9.25132C7.73174 9.26148 7.71903 9.27165 7.70633 9.2835L7.56662 9.41136L6.04165 10.7839C5.39899 11.3622 5.03236 12.1852 5.03236 13.0497V15.9277L3.145 19.0734C2.85627 19.5543 3.01207 20.1783 3.49386 20.4671C3.97481 20.7558 4.59885 20.6 4.88758 20.1182L6.91974 16.7313C7.01457 16.5738 7.06453 16.3934 7.06453 16.2089L7.06462 14.0288Z" />
<path d="M12.4843 9.09675C13.6071 9.09675 14.5165 8.18736 14.5165 7.06459C14.5165 5.94267 13.6071 5.03244 12.4843 5.03244C11.3615 5.03244 10.4521 5.94267 10.4521 7.06459C10.4521 8.18736 11.3615 9.09675 12.4843 9.09675Z"/>
<path d="M13.6689 16.2092C12.5461 16.2092 11.6367 17.1186 11.6367 18.2414C11.6367 19.3641 12.5461 20.2735 13.6689 20.2735C14.7916 20.2735 15.701 19.3641 15.701 18.2414C15.701 17.1186 14.7916 16.2092 13.6689 16.2092Z"/>
</svg>
