<svg width="32" height="32" viewBox="0 0 32 32" fill="none" xmlns="http://www.w3.org/2000/svg">
<path d="M21.5594 4C20.316 4 19.1277 4.28282 18.0274 4.84066C17.2784 5.22031 16.5904 5.72474 16 6.32322C15.4096 5.72474 14.7216 5.22031 13.9726 4.84066C12.8723 4.28282 11.684 4 10.4406 4C6.15408 4 2.66669 7.46033 2.66669 11.7136C2.66669 14.7262 4.27015 17.9257 7.43249 21.2235C10.0729 23.977 13.3055 26.2723 15.5524 27.713L16 28L16.4476 27.713C18.6945 26.2724 21.9272 23.977 24.5676 21.2235C27.7299 17.9257 29.3334 14.7262 29.3334 11.7136C29.3334 7.46033 25.846 4 21.5594 4Z" fill="#999999"/>
</svg>
