<svg width="24" height="24" viewBox="0 0 24 24" xmlns="http://www.w3.org/2000/svg">
<path fill-rule="evenodd" clip-rule="evenodd" d="M2.36705 16.632H4.13269C4.63608 16.632 5.04661 17.0425 5.04661 17.5459V19.3115C5.04661 19.8149 4.63608 20.2255 4.13269 20.2255H2.36705C1.86366 20.2255 1.45312 19.815 1.45312 19.3115V17.5459C1.45312 17.0425 1.86366 16.632 2.36705 16.632ZM8.79577 3.77457H21.633C22.1363 3.77457 22.5469 4.18514 22.5469 4.68849V6.45413C22.5469 6.95747 22.1363 7.36805 21.633 7.36805H8.79577C8.29242 7.36805 7.88184 6.95752 7.88184 6.45413V4.68849C7.88184 4.1851 8.29242 3.77457 8.79577 3.77457ZM2.36705 3.77457H4.13269C4.63608 3.77457 5.04661 4.18514 5.04661 4.68849V6.45413C5.04661 6.95752 4.63608 7.36805 4.13269 7.36805H2.36705C1.86366 7.36805 1.45312 6.95752 1.45312 6.45413V4.68849C1.45312 4.1851 1.86366 3.77457 2.36705 3.77457ZM8.79577 10.2032H21.633C22.1363 10.2032 22.5469 10.6138 22.5469 11.1172V12.8828C22.5469 13.3861 22.1363 13.7967 21.633 13.7967H8.79577C8.29242 13.7967 7.88184 13.3862 7.88184 12.8828V11.1172C7.88184 10.6138 8.29242 10.2032 8.79577 10.2032ZM2.36705 10.2032H4.13269C4.63608 10.2032 5.04661 10.6138 5.04661 11.1172V12.8828C5.04661 13.3862 4.63608 13.7967 4.13269 13.7967H2.36705C1.86366 13.7967 1.45312 13.3862 1.45312 12.8828V11.1172C1.45312 10.6138 1.86366 10.2032 2.36705 10.2032ZM8.79577 16.632H21.633C22.1363 16.632 22.5469 17.0425 22.5469 17.5459V19.3115C22.5469 19.8149 22.1363 20.2254 21.633 20.2254H8.79577C8.29242 20.2254 7.88184 19.8149 7.88184 19.3115V17.5459C7.88184 17.0425 8.29242 16.632 8.79577 16.632Z"/>
</svg>
