<svg width="16" height="16" viewBox="0 0 16 16" fill="none" xmlns="http://www.w3.org/2000/svg">
<path d="M2.84201 7.79381C2.89576 7.84987 2.95967 7.89426 3.03003 7.9244C3.10038 7.95454 3.17579 7.96983 3.25186 7.96938C3.32793 7.96893 3.40316 7.95274 3.47319 7.92177C3.54321 7.8908 3.60662 7.84565 3.65976 7.78895L3.8989 7.53382V12.8325C3.8989 13.4776 4.40051 14 5.02053 14H10.9839C11.6033 14 12.1055 13.4776 12.1055 12.8325V7.53443L12.3505 7.78955C12.4555 7.89889 12.6071 7.96571 12.7588 7.96571C12.9163 7.96571 13.0621 7.89889 13.1729 7.78955L14.8294 6.05775C15.0569 5.82085 15.0569 5.43209 14.8294 5.19519L11.9364 2.17622C11.8255 2.06688 11.6797 2.00006 11.5222 2.00006H10.2781C10.1965 1.99851 10.1167 2.02531 10.0513 2.07624C9.98594 2.12717 9.93872 2.19932 9.91709 2.28131C9.80979 2.72651 9.56286 3.12167 9.21545 3.40413C8.86805 3.6866 8.44004 3.84021 7.99929 3.8406C7.55947 3.83917 7.13266 3.68506 6.78637 3.40265C6.44009 3.12024 6.19411 2.72565 6.08733 2.28131C6.0655 2.19949 6.0182 2.12753 5.95286 2.07674C5.88751 2.02594 5.80782 1.99919 5.72629 2.00067H4.48217C4.32903 2.00068 4.18216 2.06405 4.07388 2.17683L1.17502 5.19579C1.11964 5.25184 1.07562 5.31889 1.04555 5.39297C1.01549 5.46705 1 5.54665 1 5.62708C1 5.7075 1.01549 5.78711 1.04555 5.86118C1.07562 5.93526 1.11964 6.00231 1.17502 6.05836L2.84201 7.79381Z" fill="#999999"/>
</svg>
