<svg width="24" height="24" viewBox="0 0 24 24"  xmlns="http://www.w3.org/2000/svg">
<path d="M16.5398 7.8631C17.1933 7.20443 17.1896 6.14108 16.531 5.48799C15.8732 4.83391 14.8097 4.838 14.1561 5.49636C13.5028 6.15428 13.5068 7.21762 14.1647 7.8709C14.8228 8.52452 15.8861 8.52085 16.5398 7.8631ZM12.9411 11.3996C13.0281 12.0607 13.275 12.5941 13.9486 12.5505L17.0481 12.3483L17.0498 12.3481C17.5529 12.3148 17.9297 11.8815 17.897 11.3824C17.8642 10.8826 17.4332 10.5033 16.9331 10.5353L16.9314 10.5351L15.3514 10.6383L14.6492 10.4551C14.5312 9.55546 14.5729 9.87482 14.4681 9.07483C14.413 8.65344 13.9374 8.25481 13.6359 7.95516C13.0687 7.39246 12.1533 7.39564 11.5908 7.96237L10.804 8.75488L12.6648 9.24114C12.6716 9.37302 12.7331 9.81619 12.7521 9.95919L4.5346 7.81305C4.17566 7.71819 3.80769 7.93389 3.71365 8.29393C3.61963 8.65328 3.83494 9.02105 4.19453 9.11491L12.9411 11.3996Z" />
<path d="M20.7604 17.0562C20.4768 16.8168 20.0532 16.8532 19.8123 17.1377L19.1168 17.9634L12.6349 17.9644L14.5748 14.7214C14.9437 14.1055 14.6373 13.3022 13.9482 13.0903L12.0354 12.5024L12.5444 11.9914L8.61926 10.9595C8.17641 11.4042 8.00747 12.0167 8.10599 12.5915C8.22702 13.3012 8.70905 13.7888 9.50885 14.0489L11.9421 14.7967L10.0705 17.9647L3.67294 17.9655C3.30023 17.9649 2.99957 18.2664 3 18.6381C2.99983 19.01 3.30122 19.3111 3.67278 19.3114L19.4296 19.3092C19.5277 19.3093 19.6247 19.2879 19.7136 19.2466C19.8026 19.2052 19.8814 19.1448 19.9446 19.0697L20.8419 18.0042C21.0812 17.7203 21.0448 17.2957 20.7604 17.0562Z" />
</svg>
