<svg width="24" height="24" viewBox="0 0 24 24"  xmlns="http://www.w3.org/2000/svg">
<path d="M20.9617 16.6462C20.8414 16.3454 20.5407 16.165 20.1798 16.2853L18.6159 16.8266C16.992 17.3679 15.1875 17.1875 13.6838 16.4657L13.8041 16.3454C14.8266 15.3229 14.8266 13.6388 13.8041 12.6163L9.29305 8.10518C8.51113 7.20296 7.06758 7.20296 6.22551 8.04503L3.57901 10.6915C3.39857 10.872 3.27827 11.1126 3.27827 11.4133C3.27827 11.714 3.39857 11.9546 3.57901 12.1351C3.9399 12.496 4.48123 12.5561 4.84211 12.2554L7.78935 10.3306L9.47349 12.0148L7.90965 13.5786C6.94728 13.5185 5.92477 13.6388 4.96241 13.9395L3.39857 14.4808C3.09783 14.6011 2.91738 14.9019 3.03768 15.2628C3.15798 15.5635 3.45871 15.7439 3.8196 15.6236L5.38344 15.0823C7.54876 14.3605 9.95467 14.8417 11.6388 16.4056C13.0222 17.6687 14.8266 18.3303 16.6912 18.3303C17.4731 18.3303 18.3152 18.21 19.0971 17.9694L20.661 17.4281C20.9016 17.3078 21.082 16.9469 20.9617 16.6462Z" />
<path d="M16.2095 12.0148C17.8937 12.0148 19.2169 10.6915 19.2169 9.00739C19.2169 7.32325 17.8937 6 16.2095 6C14.5254 6 13.2021 7.32325 13.2021 9.00739C13.2021 10.6915 14.5254 12.0148 16.2095 12.0148Z" />
</svg>
