<svg width="32" height="32" viewBox="0 0 32 32" fill="none" xmlns="http://www.w3.org/2000/svg">
<path d="M19.1395 12.7162C26.948 12.7162 26.3711 12.7145 26.4913 12.7192C26.4187 12.4407 26.273 12.1867 26.0693 11.9834L23.9285 9.84253C23.4659 9.37988 22.7557 9.24538 22.161 9.50803C21.8417 9.64911 21.4612 9.57791 21.2142 9.33094C20.9673 9.08401 20.8961 8.70353 21.0371 8.38423C21.2998 7.78971 21.1653 7.07938 20.7026 6.61669L18.5618 4.47587C17.9273 3.8414 16.8949 3.84135 16.2603 4.47587L13.5819 7.15426L19.1395 12.7162ZM12.5836 8.15259L8.02004 12.7162H17.1429C17.1263 12.6996 16.7772 12.3501 12.5836 8.15259ZM26.9871 20.2693C27.5932 20.0347 28.0004 19.4373 28.0004 18.783V15.7554C28.0004 14.8581 27.2703 14.128 26.3729 14.128H23.0591V28H26.3729C27.2703 28 28.0004 27.2699 28.0004 26.3726V23.345C28.0004 22.6907 27.5932 22.0934 26.9871 21.8587C26.6616 21.7325 26.4428 21.4132 26.4428 21.064C26.4428 20.7147 26.6616 20.3954 26.9871 20.2693ZM3.99963 15.7554V18.783C3.99963 19.4373 4.40685 20.0347 5.01289 20.2693C5.33845 20.3954 5.55714 20.7147 5.55714 21.064C5.55714 21.4132 5.33841 21.7325 5.01284 21.8587C4.4068 22.0934 3.99963 22.6907 3.99963 23.345V26.3726C3.99963 27.2699 4.72973 28 5.62707 28H21.6472V14.128H5.62707C4.72973 14.128 3.99963 14.858 3.99963 15.7554ZM8.94096 17.4114H19.5295V18.8232H8.94096V17.4114ZM8.94096 20.235H19.5295V21.6469H8.94096V20.235ZM8.94096 23.0587H19.5295V24.4705H8.94096V23.0587Z" fill="#999999"/>
</svg>
