<svg width="32" height="32" viewBox="0 0 32 32" fill="none" xmlns="http://www.w3.org/2000/svg">
<g clip-path="url(#clip0_2163_6689)">
<path d="M3.66667 6H29V26.6667H3.66667V6Z" fill="white"/>
<path fill-rule="evenodd" clip-rule="evenodd" d="M2.24667 2.24667C0 4.5 0 8.11333 0 15.36V16.64C0 23.88 0 27.5067 2.24667 29.7533C4.5 32 8.11333 32 15.36 32H16.64C23.88 32 27.5067 32 29.7533 29.7533C32 27.5 32 23.8867 32 16.64V15.36C32 8.12 32 4.49333 29.7533 2.24667C27.5 0 23.8867 0 16.64 0H15.36C8.12 0 4.49333 0 2.24667 2.24667ZM5.40667 9.78C5.57333 18.1 9.95333 23.1133 17.1733 23.1133H17.5933V18.3467C20.2267 18.6133 22.1867 20.58 22.9867 23.1133H26.78C26.4058 21.686 25.7359 20.3532 24.8137 19.2013C23.8915 18.0494 22.7376 17.1041 21.4267 16.4267C23.08 15.4333 25.4267 13.0333 25.98 9.78H22.5267C21.8067 12.4267 19.6533 14.8267 17.5933 15.0533V9.78H14.0867V19.0133C11.9533 18.48 9.17333 15.8933 9.06 9.78H5.40667Z" fill="#0077FF"/>
</g>
<defs>
<clipPath id="clip0_2163_6689">
<rect width="32" height="32" fill="white"/>
</clipPath>
</defs>
</svg>
