<svg width="32" height="32" viewBox="0 0 32 32" fill="none" xmlns="http://www.w3.org/2000/svg">
<g clip-path="url(#clip0_2163_7972)">
<path d="M16 31.2727C18.0057 31.2727 19.9917 30.8777 21.8446 30.1102C23.6976 29.3426 25.3813 28.2176 26.7995 26.7994C28.2177 25.3812 29.3427 23.6976 30.1102 21.8446C30.8777 19.9916 31.2728 18.0056 31.2728 16C31.2728 13.9943 30.8777 12.0083 30.1102 10.1554C29.3427 8.3024 28.2177 6.61875 26.7995 5.20054C25.3813 3.78234 23.6976 2.65736 21.8446 1.88983C19.9917 1.12231 18.0057 0.727264 16 0.727264C11.9494 0.727264 8.06476 2.33635 5.20057 5.20054C2.33638 8.06473 0.727295 11.9494 0.727295 16C0.727295 20.0506 2.33638 23.9352 5.20057 26.7994C8.06476 29.6636 11.9494 31.2727 16 31.2727Z" fill="#F8604A"/>
<path d="M18.4 25.5491H21.7236V6.44363H16.88C12.0072 6.44363 9.44725 8.94545 9.44725 12.6255C9.44725 15.5491 10.8509 17.3018 13.3527 19.0836L8.99634 25.5418H12.6109L17.4545 18.3127L15.7672 17.1927C13.7309 15.8109 12.7345 14.7491 12.7345 12.4364C12.7345 10.4073 14.1672 9.03273 16.8945 9.03273H18.3854V25.5418H18.3927L18.4 25.5491Z" fill="white"/>
</g>
<defs>
<clipPath id="clip0_2163_7972">
<rect width="32" height="32" fill="white"/>
</clipPath>
</defs>
</svg>
