<svg width="32" height="33" viewBox="0 0 32 33" fill="none" xmlns="http://www.w3.org/2000/svg">
<path d="M10.3442 11.9963V17.5342C10.3442 20.623 7.87482 23.1367 4.83972 23.1367H2.30423C1.80913 23.1367 1.40821 22.728 1.40821 22.2241C1.40821 21.7208 1.80913 21.3121 2.30423 21.3121H4.83972C6.88656 21.3121 8.55183 19.6172 8.55183 17.5342V11.9963C8.55183 11.4927 8.9534 11.0847 9.44817 11.0847C9.94327 11.0847 10.3442 11.4927 10.3442 11.9963ZM0 12.7268C0 9.6445 2.46356 7.13672 5.49189 7.13672H17.4465C17.9413 7.13672 18.3425 7.54511 18.3425 8.04837C18.3425 8.55229 17.9413 8.96068 17.4465 8.96068H5.49189C3.45183 8.96068 1.79236 10.65 1.79236 12.7261C1.79236 14.8022 3.45183 16.4912 5.49189 16.4912C5.50802 16.4912 5.92023 16.4922 5.93603 16.4925C6.40855 16.5181 6.78367 16.9167 6.78367 17.4039C6.78367 17.8923 6.4063 18.2912 5.93152 18.3149C5.917 18.3158 5.50641 18.3162 5.49189 18.3162C2.46356 18.3162 0 15.8084 0 12.7268Z" fill="#2E2E2E"/>
<path d="M17.5619 12.1812V17.3278C17.5619 17.8314 17.161 18.2397 16.6662 18.2397C16.1708 18.2397 15.7696 17.8314 15.7696 17.3278V12.1812C15.7696 11.6776 16.1708 11.2696 16.6662 11.2696C17.161 11.2696 17.5619 11.678 17.5619 12.1812Z" fill="#2E2E2E"/>
<path d="M32 12.7949V17.3278C32 17.8317 31.5991 18.2398 31.104 18.2398C30.6089 18.2398 30.208 17.8317 30.208 17.3278V12.7949C30.208 10.681 28.5182 8.96081 26.441 8.96081H25.8205C25.3257 8.96081 24.9241 8.55275 24.9241 8.04883C24.9241 7.54491 25.3257 7.13685 25.8205 7.13685H26.441C29.5061 7.13685 32 9.67483 32 12.7949Z" fill="#2E2E2E"/>
<path d="M24.7682 12.7949V17.3278C24.7682 17.8317 24.367 18.2398 23.8719 18.2398C23.3768 18.2398 22.9758 17.8317 22.9758 17.3278V12.7949C22.9758 10.681 21.286 8.96081 19.2092 8.96081H16.1219C15.6264 8.96081 15.2255 8.55275 15.2255 8.04883C15.2255 7.54491 15.6264 7.13685 16.1219 7.13685H19.2092C22.2743 7.13685 24.7682 9.67483 24.7682 12.7949Z" fill="#2E2E2E"/>
</svg>
