<svg xmlns="http://www.w3.org/2000/svg" xmlns:xlink="http://www.w3.org/1999/xlink"><defs>
<clipPath id="clip0_2202_6690">
<rect width="20" height="20" fill="white"/>
</clipPath>

<clipPath id="clip0_2163_6689">
<rect width="32" height="32" fill="white"/>
</clipPath>

<clipPath id="clip0_2163_7972">
<rect width="32" height="32" fill="white"/>
</clipPath>
</defs><symbol id="another" viewBox="0 0 24 24">
<path d="M10.4415 6.27426L9.0858 3.00151H14.1303L12.7746 6.27426H10.4415ZM11.589 11.1826L8.30402 3.25229C8.26231 3.15216 8.18262 3.07265 8.0824 3.03116C7.98218 2.98968 7.8696 2.98961 7.76933 3.03097C7.42136 3.1739 7.10521 3.38448 6.8392 3.65048C6.5732 3.91649 6.36262 4.23264 6.21968 4.58061C6.07467 4.9278 6 5.30032 6 5.67657C6 6.05283 6.07467 6.42535 6.21968 6.77254L8.47338 12.2131C9.37629 11.5477 10.4675 11.1868 11.589 11.1826ZM16.996 4.58061C16.8531 4.23264 16.6425 3.91649 16.3765 3.65048C16.1105 3.38448 15.7944 3.1739 15.4464 3.03097C15.3461 2.98961 15.2335 2.98968 15.1333 3.03116C15.0331 3.07265 14.9534 3.15216 14.9117 3.25229L11.6267 11.1826C12.7918 11.1867 13.8669 11.5712 14.7419 12.2131L16.9956 6.77254C17.1408 6.4254 17.2156 6.05289 17.2156 5.67662C17.2157 5.30035 17.1411 4.92781 16.996 4.58061ZM11.6079 13.6363C10.0292 13.6363 8.7442 14.9213 8.7442 16.5C8.7442 18.0787 10.0292 19.3636 11.6079 19.3636C13.1866 19.3636 14.4715 18.0787 14.4715 16.5C14.4715 14.9213 13.187 13.6363 11.6079 13.6363ZM16.1079 16.5C16.1079 18.9852 14.0931 21 11.6079 21C9.12261 21 7.10783 18.9852 7.10783 16.5C7.10783 14.0147 9.12261 11.9999 11.6079 11.9999C14.0931 11.9999 16.1079 14.0147 16.1079 16.5ZM15.2897 16.5C15.2897 14.4696 13.6382 12.8181 11.6079 12.8181C9.57753 12.8181 7.92601 14.4696 7.92601 16.5C7.92601 18.5303 9.57753 20.1818 11.6079 20.1818C13.6382 20.1818 15.2897 18.5303 15.2897 16.5Z"/>
</symbol><symbol id="aquathlon" viewBox="0 0 24 24">
<path d="M8.8139 3.32353C8.8139 4.0545 8.22134 4.64707 7.49037 4.64707C6.7594 4.64707 6.16683 4.0545 6.16683 3.32353C6.16683 2.59257 6.7594 2 7.49037 2C8.22134 2 8.8139 2.59257 8.8139 3.32353Z"/>
<path d="M3.96578 6.35528C4.20935 6.1096 4.54148 5.97062 4.88838 5.97062C4.93513 5.97062 4.98187 5.97311 5.02616 5.97807L4.25855 8.30336C4.02975 8.99821 4.30038 9.76255 4.9179 10.1522L7.03866 11.4898L6.41375 13.6935C6.2932 14.1153 6.53676 14.5546 6.95501 14.6762C7.37326 14.7978 7.80872 14.5521 7.92928 14.1302L8.63537 11.6387C8.78053 11.1274 8.57141 10.5815 8.1261 10.3011L6.72866 9.42009L7.48889 7.37523L7.61436 7.68047C7.9834 8.56889 8.84204 9.14711 9.79662 9.14711H10.3207C10.7561 9.14711 11.108 8.79224 11.108 8.35299C11.108 7.91374 10.7561 7.55887 10.3207 7.55887H9.79662C9.47925 7.55887 9.1914 7.3653 9.07084 7.06999L8.91585 6.69774C8.55665 5.82669 7.83087 5.16161 6.93533 4.88367L5.73717 4.51143C5.46408 4.42705 5.17869 4.38238 4.89084 4.38238C4.12816 4.38238 3.395 4.68762 2.8562 5.23358L2.28542 5.80684C1.97788 6.11704 1.97788 6.62081 2.28542 6.93101C2.59295 7.24122 3.09239 7.24122 3.39992 6.93101L3.96824 6.35776L3.96578 6.35528ZM3.14404 11.1619L1.78729 11.3233C1.35182 11.3233 1 11.4907 1 11.93C1 12.3692 1.35182 12.7241 1.78729 12.7241L3.62873 12.5628C4.09618 12.5628 4.5464 11.9935 4.73584 11.5642L5.11857 10.6832L4.88484 10.5343C4.46555 10.2711 4.13925 9.88121 3.9524 9.42009L3.14404 11.1619Z"/>
<path d="M22.859 20.811C22.7741 20.5987 22.5618 20.4713 22.307 20.5562L21.203 20.9384C20.0565 21.3206 18.7826 21.1932 17.7211 20.6836L17.806 20.5987C18.5279 19.8769 18.5279 18.6879 17.806 17.9661L14.6214 14.7814C14.0694 14.1445 13.0503 14.1445 12.4558 14.739L10.5875 16.6073C10.4601 16.7347 10.3752 16.9045 10.3752 17.1168C10.3752 17.3291 10.4601 17.499 10.5875 17.6264C10.8423 17.8811 11.2244 17.9236 11.4792 17.7113L13.5598 16.3525L14.7488 17.5415L13.6448 18.6455C12.9654 18.603 12.2435 18.6879 11.5641 18.9002L10.4601 19.2824C10.2478 19.3673 10.1204 19.5796 10.2053 19.8344C10.2903 20.0467 10.5026 20.1741 10.7573 20.0892L11.8614 19.707C13.39 19.1975 15.0885 19.5372 16.2774 20.6412C17.254 21.5329 18.5279 22 19.8442 22C20.3962 22 20.9907 21.915 21.5427 21.7452L22.6467 21.363C22.8165 21.2781 22.9439 21.0233 22.859 20.811Z"/>
<path d="M19.5048 17.5415C20.6937 17.5415 21.6279 16.6073 21.6279 15.4184C21.6279 14.2294 20.6937 13.2953 19.5048 13.2953C18.3159 13.2953 17.3817 14.2294 17.3817 15.4184C17.3817 16.6073 18.3159 17.5415 19.5048 17.5415Z"/>
</symbol><symbol id="arrow" viewBox="0 0 10 5"><g fill="none">
<path d="M1 0.5L5 4.5L9 0.5" stroke-linecap="round" stroke-linejoin="round"/>
</g></symbol><symbol id="bicycle-race" viewBox="0 0 24 24">
<path fill-rule="evenodd" clip-rule="evenodd" d="M13.6269 12.2759L11.7143 11.165L12.4129 10.7277L13.104 10.295L13.0771 10.5667C13.0311 11.0292 13.3719 11.4523 13.8009 11.5393C13.8112 11.5414 17.1584 12.1103 17.2805 12.1103C17.7153 12.1103 18.0992 11.7962 18.1727 11.3529C18.2548 10.8593 17.9212 10.393 17.4277 10.3113L14.9635 9.90192L15.0807 8.72597L15.094 8.64141C15.2022 7.95605 15.2393 7.72163 14.9695 7.29058L14.6168 6.72665C14.1611 5.99887 13.2002 5.77633 12.4707 6.23308L8.61008 8.65018C7.66189 9.24387 7.19948 10.4956 7.97359 11.4165C8.27601 11.7763 11.2164 13.5832 11.2164 13.5832L8.83501 16.0534C8.41824 16.4853 8.43063 17.1735 8.86296 17.5899C9.06525 17.7856 9.33579 17.8948 9.61724 17.8945C9.90208 17.8945 10.1865 17.7834 10.3995 17.5619L13.8632 13.9699C14.3518 13.4643 14.2372 12.6304 13.6269 12.2759ZM17.6842 7.34187C18.5309 6.81154 18.7874 5.69565 18.2573 4.84937C17.7274 4.00238 16.6115 3.74588 15.7649 4.27588C14.9186 4.80588 14.6621 5.92138 15.1918 6.76765C15.7217 7.61468 16.8376 7.87154 17.6842 7.34187ZM8.14203 17.8553C7.71609 18.1828 7.1896 18.3856 6.6119 18.3856C5.21972 18.3856 4.08686 17.2527 4.08686 15.8605C4.08686 14.468 5.21972 13.3351 6.6119 13.3351C7.66263 13.3351 8.56377 13.9812 8.94372 14.8961L9.73443 14.076C9.11175 12.9892 7.95418 12.2483 6.6119 12.2483C4.61679 12.2483 3 13.8655 3 15.8605C3 17.8553 4.61679 19.4724 6.6119 19.4724C7.55056 19.4724 8.39748 19.1056 9.03995 18.5182C8.79338 18.4355 8.5595 18.3042 8.35965 18.1118C8.27719 18.0321 8.20604 17.9451 8.14203 17.8553ZM13.7764 15.8605C13.7764 13.9115 15.3724 12.2483 17.3883 12.2483C19.3829 12.2483 21.0002 13.8655 21.0002 15.8605C21.0002 17.8553 19.3829 19.4724 17.3883 19.4724C15.3932 19.4724 13.7764 17.8553 13.7764 15.8605ZM14.8632 15.8605C14.8632 17.2527 15.9961 18.3856 17.3883 18.3856C18.7805 18.3856 19.9134 17.2527 19.9133 15.8605C19.9133 14.468 18.7805 13.3351 17.3883 13.3351C15.9961 13.3351 14.8632 14.468 14.8632 15.8605Z"/>
</symbol><symbol id="duathlon" viewBox="0 0 24 24">
<path d="M9.05796 3.36486C9.05796 4.11865 8.44689 4.72972 7.6931 4.72972C6.9393 4.72972 6.32823 4.11865 6.32823 3.36486C6.32823 2.61107 6.9393 2 7.6931 2C8.44689 2 9.05796 2.61107 9.05796 3.36486Z"/>
<path d="M4.05838 6.49123C4.30956 6.23788 4.65206 6.09457 5.00979 6.09457C5.058 6.09457 5.1062 6.09713 5.15187 6.10224L4.3603 8.50014C4.12435 9.21669 4.40343 10.0049 5.04024 10.4067L7.22721 11.786L6.58279 14.0585C6.45847 14.4936 6.70965 14.9465 7.14095 15.0719C7.57226 15.1973 8.02132 14.944 8.14564 14.5089L8.87379 11.9396C9.02347 11.4124 8.80782 10.8494 8.34861 10.5602L6.90754 9.65174L7.6915 7.54303L7.82089 7.8578C8.20146 8.77396 9.0869 9.37024 10.0713 9.37024H10.6117C11.0608 9.37024 11.4236 9.00428 11.4236 8.55132C11.4236 8.09836 11.0608 7.7324 10.6117 7.7324H10.0713C9.74401 7.7324 9.44717 7.53279 9.32285 7.22826L9.16302 6.84439C8.7926 5.94614 8.04416 5.2603 7.12066 4.97367L5.88509 4.58981C5.60347 4.5028 5.30917 4.45673 5.01233 4.45673C4.22583 4.45673 3.46978 4.7715 2.91416 5.33451L2.32555 5.92566C2.00842 6.24555 2.00842 6.76506 2.32555 7.08494C2.64269 7.40483 3.15772 7.40483 3.47486 7.08494L4.06092 6.49379L4.05838 6.49123ZM3.21098 11.448L1.81187 11.6143C1.3628 11.6143 1 11.787 1 12.24C1 12.693 1.3628 13.0589 1.81187 13.0589L3.71081 12.8926C4.19286 12.8926 4.65714 12.3055 4.85249 11.8628L5.24717 10.9543L5.00615 10.8008C4.57376 10.5294 4.23727 10.1273 4.04459 9.65174L3.21098 11.448Z"/>
<path d="M13.48 20.8227C13.1699 21.0612 12.7866 21.2088 12.366 21.2088C11.3525 21.2088 10.5278 20.3841 10.5278 19.3705C10.5278 18.3568 11.3525 17.5321 12.366 17.5321C13.131 17.5321 13.787 18.0024 14.0636 18.6684L14.6392 18.0714C14.1859 17.2802 13.3432 16.7408 12.366 16.7408C10.9136 16.7408 9.73655 17.9181 9.73655 19.3705C9.73655 20.8227 10.9136 22 12.366 22C13.0494 22 13.6659 21.7329 14.1337 21.3054C13.9541 21.2451 13.7839 21.1496 13.6384 21.0095C13.5784 20.9515 13.5266 20.8881 13.48 20.8227Z"/>
<path d="M17.4731 16.761L16.0807 15.9522C16.7017 15.5636 16.4714 15.7075 17.0924 15.3188L17.0728 15.5167C17.0393 15.8533 17.2874 16.1614 17.5998 16.2247C17.6073 16.2262 20.0441 16.6404 20.1329 16.6404C20.4495 16.6404 20.729 16.4117 20.7825 16.089C20.8423 15.7297 20.5994 15.3902 20.2401 15.3307L18.4461 15.0327L18.5314 14.1766C18.6174 13.6295 18.6548 13.458 18.4505 13.1316L18.1937 12.7211C17.862 12.1913 17.1625 12.0292 16.6314 12.3618L13.8208 14.1214C13.1306 14.5536 12.7939 15.4649 13.3575 16.1353C13.5776 16.3972 15.7182 17.7127 15.7182 17.7127L13.9846 19.511C13.6812 19.8254 13.6902 20.3264 14.0049 20.6296C14.1522 20.772 14.3492 20.8516 14.5541 20.8513C14.7614 20.8513 14.9685 20.7704 15.1236 20.6092L17.6451 17.9942C18.0008 17.6261 17.9174 17.019 17.4731 16.761ZM20.4268 13.169C21.0432 12.7829 21.2299 11.9705 20.8441 11.3544C20.4583 10.7378 19.6459 10.5511 19.0296 10.9369C18.4135 11.3228 18.2267 12.1348 18.6123 12.7509C18.9981 13.3676 19.8105 13.5546 20.4268 13.169Z"/>
<path d="M20.2111 16.7408C18.7435 16.7408 17.5816 17.9517 17.5816 19.3705C17.5816 20.8227 18.7587 22 20.2111 22C21.6632 22 22.8406 20.8227 22.8406 19.3705C22.8406 17.9181 21.6632 16.7408 20.2111 16.7408ZM20.2111 21.2088C19.1976 21.2088 18.3728 20.3841 18.3728 19.3705C18.3728 18.3568 19.1976 17.5321 20.2111 17.5321C21.2246 17.5321 22.0493 18.3568 22.0493 19.3705C22.0494 20.3841 21.2246 21.2088 20.2111 21.2088Z"/>
</symbol><symbol id="fight" viewBox="0 0 24 24">
<path d="M7.06462 14.0288L8.92744 15.8916V19.5961C8.92744 20.1575 9.38214 20.6122 9.94352 20.6122C10.5049 20.6122 10.9596 20.1575 10.9596 19.5961V15.4709C10.9596 15.2016 10.8529 14.9434 10.6624 14.7528L9.27036 13.3608L10.8334 11.9315L13.2889 14.3879C13.294 14.3925 13.2991 14.3974 13.3041 14.4023C13.3092 14.4071 13.3143 14.412 13.3194 14.4167L15.1144 16.0991C16.0128 16.9416 17.4065 16.956 18.3219 16.1321L19.9908 14.63C20.7359 13.9594 21.1034 12.9662 20.9747 11.9721L19.9265 3.88573C19.8545 3.32859 19.3448 2.93655 18.7884 3.00852C18.2321 3.08049 17.8393 3.59022 17.9112 4.14652L18.7173 10.3642L17.2694 8.75536L17.5581 6.16092C17.62 5.60293 17.2178 5.10082 16.6598 5.03816C16.1026 4.97634 15.5997 5.37854 15.5378 5.93569L15.1992 8.98467C15.1678 9.27256 15.2601 9.56044 15.454 9.77636L17.0476 11.5469L15.1136 13.3132L14.714 12.938L11.0628 9.28689C10.1712 8.39527 8.7376 8.35717 7.80032 9.20137L7.74443 9.25132C7.73174 9.26148 7.71903 9.27165 7.70633 9.2835L7.56662 9.41136L6.04165 10.7839C5.39899 11.3622 5.03236 12.1852 5.03236 13.0497V15.9277L3.145 19.0734C2.85627 19.5543 3.01207 20.1783 3.49386 20.4671C3.97481 20.7558 4.59885 20.6 4.88758 20.1182L6.91974 16.7313C7.01457 16.5738 7.06453 16.3934 7.06453 16.2089L7.06462 14.0288Z"/>
<path d="M12.4843 9.09675C13.6071 9.09675 14.5165 8.18736 14.5165 7.06459C14.5165 5.94267 13.6071 5.03244 12.4843 5.03244C11.3615 5.03244 10.4521 5.94267 10.4521 7.06459C10.4521 8.18736 11.3615 9.09675 12.4843 9.09675Z"/>
<path d="M13.6689 16.2092C12.5461 16.2092 11.6367 17.1186 11.6367 18.2414C11.6367 19.3641 12.5461 20.2735 13.6689 20.2735C14.7916 20.2735 15.701 19.3641 15.701 18.2414C15.701 17.1186 14.7916 16.2092 13.6689 16.2092Z"/>
</symbol><symbol id="hide-password" viewBox="0 0 20 20"><g fill="none">
<g clip-path="url(#clip0_2202_6690)">
<path d="M14.95 14.9499C13.5255 16.0358 11.7909 16.6373 9.99998 16.6666C4.16665 16.6666 0.833313 9.99994 0.833313 9.99994C1.86989 8.06819 3.30759 6.38045 5.04998 5.04994M8.24998 3.53327C8.82359 3.39901 9.41087 3.33189 9.99998 3.33327C15.8333 3.33327 19.1666 9.99994 19.1666 9.99994C18.6608 10.9463 18.0575 11.8372 17.3666 12.6583M11.7666 11.7666C11.5378 12.0122 11.2618 12.2092 10.9551 12.3459C10.6484 12.4825 10.3174 12.556 9.98172 12.5619C9.64605 12.5678 9.31262 12.5061 9.00132 12.3803C8.69003 12.2546 8.40725 12.0675 8.16985 11.8301C7.93246 11.5927 7.74531 11.3099 7.61957 10.9986C7.49383 10.6873 7.43209 10.3539 7.43801 10.0182C7.44393 9.68252 7.5174 9.35148 7.65404 9.04481C7.79068 8.73815 7.98769 8.46215 8.23331 8.23327" stroke-width="1.5" stroke-linecap="round" stroke-linejoin="round"/>
<path d="M0.833313 0.833374L19.1666 19.1667" stroke-width="1.5" stroke-linecap="round" stroke-linejoin="round"/>
</g>

</g></symbol><symbol id="like" viewBox="0 0 20 18">
<path d="M11.822 1.22513L11.822 1.2251C12.553 0.85449 13.3409 0.666667 14.1695 0.666667C17.0212 0.666667 19.3333 2.96833 19.3333 5.78523C19.3333 7.80193 18.2573 10.0443 15.9445 12.4562C14.0259 14.457 11.6648 16.139 10 17.208C8.33517 16.139 5.97407 14.457 4.05554 12.4562C1.74268 10.0443 0.666667 7.80193 0.666667 5.78523C0.666667 2.96832 2.97883 0.666667 5.83043 0.666667C6.65909 0.666667 7.44697 0.854489 8.17801 1.22511L8.17804 1.22513C8.67477 1.47691 9.13246 1.81229 9.5254 2.21061L10 2.69169L10.4746 2.2106C10.8675 1.81229 11.3252 1.47691 11.822 1.22513Z" stroke-width="1.33333"/>
</symbol><symbol id="login" viewBox="0 0 32 32"><g fill="none">
<path d="M25.5999 27.2V24.8C25.5999 23.527 25.0942 22.3061 24.194 21.4059C23.2938 20.5057 22.0729 20 20.7999 20H11.1999C9.92686 20 8.70596 20.5057 7.80579 21.4059C6.90561 22.3061 6.3999 23.527 6.3999 24.8V27.2" stroke-width="2" stroke-linecap="round" stroke-linejoin="round"/>
<path d="M16.0002 15.2C18.6512 15.2 20.8002 13.051 20.8002 10.4C20.8002 7.74903 18.6512 5.6 16.0002 5.6C13.3492 5.6 11.2002 7.74903 11.2002 10.4C11.2002 13.051 13.3492 15.2 16.0002 15.2Z" stroke-width="2" stroke-linecap="round" stroke-linejoin="round"/>
</g></symbol><symbol id="map" viewBox="0 0 16 16"><g fill="none">
<path fill-rule="evenodd" clip-rule="evenodd" d="M13.5866 5.66668C12.28 -0.106655 3.72664 -0.113322 2.4133 5.66001C1.64664 9.04668 3.7533 11.92 5.5933 13.6933C6.93997 14.9867 9.05997 14.9867 10.4 13.6933C12.2466 11.92 14.3533 9.05334 13.5866 5.66668ZM10.08 6.87334C10.08 8.0221 9.14872 8.95334 7.99997 8.95334C6.85122 8.95334 5.91997 8.0221 5.91997 6.87334C5.91997 5.72459 6.85122 4.79334 7.99997 4.79334C9.14872 4.79334 10.08 5.72459 10.08 6.87334Z" fill="#999999"/>
</g></symbol><symbol id="run" viewBox="0 0 24 24">
<path fill-rule="evenodd" clip-rule="evenodd" d="M14.1941 6.7496C15.2296 6.7496 16.0689 5.91023 16.0689 4.8748C16.0689 3.83938 15.2296 3 14.1941 3C13.1587 3 12.3193 3.83938 12.3193 4.8748C12.3193 5.91023 13.1587 6.7496 14.1941 6.7496ZM10.5079 8.6244C10.0165 8.6244 9.54607 8.82125 9.20106 9.16926L9.20454 9.17278L8.39951 9.9848C7.96389 10.4242 7.25643 10.4242 6.82081 9.9848C6.38518 9.54539 6.38518 8.8318 6.82081 8.39239L7.62933 7.58037C8.39254 6.80701 9.43107 6.37463 10.5114 6.37463C10.9192 6.37463 11.3234 6.43791 11.7103 6.55743L13.4075 7.08471C14.676 7.47842 15.7041 8.42051 16.2129 9.65437L16.4324 10.1817C16.6032 10.6 17.0109 10.8742 17.4605 10.8742H18.2028C18.8197 10.8742 19.318 11.3768 19.318 11.999C19.318 12.6212 18.8197 13.1239 18.2028 13.1239H17.4605C16.1083 13.1239 14.8921 12.3049 14.3693 11.0464L14.1916 10.614L13.1147 13.5106L15.0942 14.7585C15.725 15.1557 16.0212 15.9291 15.8156 16.6532L14.8154 20.1826C14.6446 20.7801 14.0278 21.1282 13.4353 20.9559C12.8429 20.7837 12.4979 20.1615 12.6686 19.5639L13.5538 16.4423L10.5498 14.5476C9.67502 13.9957 9.29167 12.913 9.61577 11.9287L10.7031 8.63494C10.6404 8.62791 10.5741 8.6244 10.5079 8.6244ZM6.1152 16.2065L8.03705 15.978L9.18211 13.5106C9.44678 14.1638 9.90898 14.7161 10.5029 15.0889L10.834 15.2999L10.2919 16.5478C10.0235 17.1559 9.38578 17.9623 8.72363 17.9623L6.1152 18.1908C5.49836 18.1908 5 17.6881 5 17.0659C5 16.4437 5.49836 16.2065 6.1152 16.2065Z"/>
</symbol><symbol id="search" viewBox="0 0 24 24"><g fill="none">
<path d="M16.0345 16.0345L21 21M10.3913 17.7827C6.30922 17.7827 3 14.4734 3 10.3913C3 6.30922 6.30922 3 10.3913 3C14.4734 3 17.7827 6.30922 17.7827 10.3913C17.7827 14.4734 14.4734 17.7827 10.3913 17.7827Z" stroke="#2E2E2E" stroke-width="1.5" stroke-linecap="round"/>
</g></symbol><symbol id="show-password" viewBox="0 0 20 20"><g fill="none">
<path d="M0.833252 9.99992C0.833252 9.99992 4.16659 3.33325 9.99992 3.33325C15.8333 3.33325 19.1666 9.99992 19.1666 9.99992C19.1666 9.99992 15.8333 16.6666 9.99992 16.6666C4.16659 16.6666 0.833252 9.99992 0.833252 9.99992Z" stroke-width="1.5" stroke-linecap="round" stroke-linejoin="round"/>
<path d="M10 12.5C11.3807 12.5 12.5 11.3807 12.5 10C12.5 8.61929 11.3807 7.5 10 7.5C8.61929 7.5 7.5 8.61929 7.5 10C7.5 11.3807 8.61929 12.5 10 12.5Z" stroke-width="1.5" stroke-linecap="round" stroke-linejoin="round"/>
</g></symbol><symbol id="skis" viewBox="0 0 24 24">
<path d="M16.5398 7.8631C17.1933 7.20443 17.1896 6.14108 16.531 5.48799C15.8732 4.83391 14.8097 4.838 14.1561 5.49636C13.5028 6.15428 13.5068 7.21762 14.1647 7.8709C14.8228 8.52452 15.8861 8.52085 16.5398 7.8631ZM12.9411 11.3996C13.0281 12.0607 13.275 12.5941 13.9486 12.5505L17.0481 12.3483L17.0498 12.3481C17.5529 12.3148 17.9297 11.8815 17.897 11.3824C17.8642 10.8826 17.4332 10.5033 16.9331 10.5353L16.9314 10.5351L15.3514 10.6383L14.6492 10.4551C14.5312 9.55546 14.5729 9.87482 14.4681 9.07483C14.413 8.65344 13.9374 8.25481 13.6359 7.95516C13.0687 7.39246 12.1533 7.39564 11.5908 7.96237L10.804 8.75488L12.6648 9.24114C12.6716 9.37302 12.7331 9.81619 12.7521 9.95919L4.5346 7.81305C4.17566 7.71819 3.80769 7.93389 3.71365 8.29393C3.61963 8.65328 3.83494 9.02105 4.19453 9.11491L12.9411 11.3996Z"/>
<path d="M20.7604 17.0562C20.4768 16.8168 20.0532 16.8532 19.8123 17.1377L19.1168 17.9634L12.6349 17.9644L14.5748 14.7214C14.9437 14.1055 14.6373 13.3022 13.9482 13.0903L12.0354 12.5024L12.5444 11.9914L8.61926 10.9595C8.17641 11.4042 8.00747 12.0167 8.10599 12.5915C8.22702 13.3012 8.70905 13.7888 9.50885 14.0489L11.9421 14.7967L10.0705 17.9647L3.67294 17.9655C3.30023 17.9649 2.99957 18.2664 3 18.6381C2.99983 19.01 3.30122 19.3111 3.67278 19.3114L19.4296 19.3092C19.5277 19.3093 19.6247 19.2879 19.7136 19.2466C19.8026 19.2052 19.8814 19.1448 19.9446 19.0697L20.8419 18.0042C21.0812 17.7203 21.0448 17.2957 20.7604 17.0562Z"/>
</symbol><symbol id="swimming" viewBox="0 0 24 24">
<path d="M20.9617 16.6462C20.8414 16.3454 20.5407 16.165 20.1798 16.2853L18.6159 16.8266C16.992 17.3679 15.1875 17.1875 13.6838 16.4657L13.8041 16.3454C14.8266 15.3229 14.8266 13.6388 13.8041 12.6163L9.29305 8.10518C8.51113 7.20296 7.06758 7.20296 6.22551 8.04503L3.57901 10.6915C3.39857 10.872 3.27827 11.1126 3.27827 11.4133C3.27827 11.714 3.39857 11.9546 3.57901 12.1351C3.9399 12.496 4.48123 12.5561 4.84211 12.2554L7.78935 10.3306L9.47349 12.0148L7.90965 13.5786C6.94728 13.5185 5.92477 13.6388 4.96241 13.9395L3.39857 14.4808C3.09783 14.6011 2.91738 14.9019 3.03768 15.2628C3.15798 15.5635 3.45871 15.7439 3.8196 15.6236L5.38344 15.0823C7.54876 14.3605 9.95467 14.8417 11.6388 16.4056C13.0222 17.6687 14.8266 18.3303 16.6912 18.3303C17.4731 18.3303 18.3152 18.21 19.0971 17.9694L20.661 17.4281C20.9016 17.3078 21.082 16.9469 20.9617 16.6462Z"/>
<path d="M16.2095 12.0148C17.8937 12.0148 19.2169 10.6915 19.2169 9.00739C19.2169 7.32325 17.8937 6 16.2095 6C14.5254 6 13.2021 7.32325 13.2021 9.00739C13.2021 10.6915 14.5254 12.0148 16.2095 12.0148Z"/>
</symbol><symbol id="triathlon" viewBox="0 0 24 24">
<path d="M23.8529 8.76539C23.7765 8.57427 23.5853 8.45961 23.356 8.53605L22.3622 8.88005C21.3302 9.22406 20.1835 9.10939 19.228 8.65072L19.3044 8.57427C19.9542 7.92449 19.9542 6.85426 19.3044 6.20447L16.4377 3.33778C15.9408 2.76445 15.0235 2.76445 14.4884 3.29956L12.8066 4.98135C12.6919 5.09602 12.6155 5.24891 12.6155 5.44002C12.6155 5.63114 12.6919 5.78403 12.8066 5.8987C13.0359 6.12803 13.3799 6.16625 13.6093 5.97514L15.4822 4.75202L16.5524 5.82225L15.5586 6.81604C14.9471 6.77781 14.2973 6.85426 13.6857 7.04537L12.6919 7.38937C12.5008 7.46582 12.3861 7.65693 12.4626 7.88627C12.539 8.07738 12.7301 8.19205 12.9595 8.1156L13.9533 7.7716C15.3293 7.31293 16.8582 7.61871 17.9284 8.61249C18.8075 9.41517 19.9542 9.83562 21.1391 9.83562C21.636 9.83562 22.1711 9.75917 22.668 9.60628L23.6618 9.26228C23.8147 9.18583 23.9293 8.9565 23.8529 8.76539Z"/>
<path d="M20.8336 5.82225C21.9038 5.82225 22.7447 4.98136 22.7447 3.91113C22.7447 2.8409 21.9038 2 20.8336 2C19.7634 2 18.9225 2.8409 18.9225 3.91113C18.9225 4.98136 19.7634 5.82225 20.8336 5.82225Z"/>
<path d="M11.8946 20.9723C11.6239 21.1805 11.2894 21.3093 10.9222 21.3093C10.0375 21.3093 9.31763 20.5894 9.31763 19.7047C9.31763 18.8198 10.0375 18.0999 10.9222 18.0999C11.5899 18.0999 12.1626 18.5105 12.4041 19.0918L12.9065 18.5707C12.5108 17.8801 11.7752 17.4093 10.9222 17.4093C9.65439 17.4093 8.62695 18.4369 8.62695 19.7047C8.62695 20.9723 9.65439 22 10.9222 22C11.5187 22 12.0569 21.7669 12.4652 21.3936C12.3085 21.3411 12.1599 21.2576 12.0329 21.1353C11.9805 21.0847 11.9353 21.0294 11.8946 20.9723Z"/>
<path d="M15.3795 17.4268L14.1641 16.7209C14.7061 16.3816 14.5051 16.5072 15.0472 16.168L15.0301 16.3407C15.0009 16.6345 15.2174 16.9035 15.4901 16.9587C15.4966 16.96 17.6237 17.3216 17.7013 17.3216C17.9776 17.3216 18.2216 17.1219 18.2683 16.8402C18.3204 16.5266 18.1084 16.2302 17.7948 16.1783L16.2289 15.9182L16.3033 15.1709C16.3784 14.6934 16.411 14.5436 16.2327 14.2587L16.0085 13.9004C15.7189 13.4379 15.1083 13.2965 14.6447 13.5867L12.1914 15.1227C11.5889 15.5 11.295 16.2955 11.7869 16.8807C11.9791 17.1093 13.8477 18.2576 13.8477 18.2576L12.3344 19.8273C12.0695 20.1018 12.0774 20.5391 12.3521 20.8037C12.4807 20.9281 12.6526 20.9975 12.8314 20.9973C13.0125 20.9973 13.1932 20.9267 13.3286 20.7859L15.5296 18.5033C15.8402 18.182 15.7673 17.6521 15.3795 17.4268ZM17.9578 14.2913C18.4959 13.9543 18.6589 13.2452 18.322 12.7074C17.9853 12.1692 17.2761 12.0062 16.7382 12.343C16.2003 12.6798 16.0373 13.3886 16.3739 13.9264C16.7107 14.4647 17.4198 14.6279 17.9578 14.2913Z"/>
<path d="M17.7712 17.4093C16.4901 17.4093 15.4759 18.4662 15.4759 19.7047C15.4759 20.9723 16.5034 22 17.7712 22C19.0388 22 20.0665 20.9723 20.0665 19.7047C20.0665 18.4369 19.0388 17.4093 17.7712 17.4093ZM17.7712 21.3093C16.8865 21.3093 16.1666 20.5894 16.1666 19.7047C16.1666 18.8198 16.8865 18.0999 17.7712 18.0999C18.6559 18.0999 19.3758 18.8198 19.3758 19.7047C19.3758 20.5894 18.6559 21.3093 17.7712 21.3093Z"/>
<path d="M8.03448 5.09783C8.03448 5.75582 7.50108 6.28922 6.84309 6.28922C6.1851 6.28922 5.65169 5.75582 5.65169 5.09783C5.65169 4.43984 6.1851 3.90643 6.84309 3.90643C7.50108 3.90643 8.03448 4.43984 8.03448 5.09783Z"/>
<path d="M3.66968 7.82686C3.88893 7.60571 4.1879 7.48061 4.50017 7.48061C4.54225 7.48061 4.58433 7.48284 4.62419 7.48731L3.93322 9.58044C3.72726 10.2059 3.97087 10.894 4.52674 11.2447L6.43576 12.4487L5.87325 14.4324C5.76473 14.8122 5.98398 15.2075 6.36047 15.317C6.73695 15.4265 7.12895 15.2053 7.23746 14.8256L7.87306 12.5828C8.00373 12.1226 7.81548 11.6311 7.41463 11.3787L6.15672 10.5857L6.84104 8.74498L6.95399 9.01974C7.28619 9.81947 8.05909 10.34 8.91838 10.34H9.39009C9.78209 10.34 10.0988 10.0205 10.0988 9.62512C10.0988 9.22973 9.78209 8.91028 9.39009 8.91028H8.91838C8.63269 8.91028 8.37357 8.73604 8.26506 8.47021L8.12553 8.13513C7.8022 7.35105 7.14888 6.75237 6.34275 6.50218L5.26422 6.1671C5.01839 6.09115 4.7615 6.05094 4.50238 6.05094C3.81585 6.05094 3.15588 6.3257 2.67088 6.81715L2.15708 7.33317C1.88025 7.61241 1.88025 8.06588 2.15708 8.34512C2.43391 8.62435 2.88348 8.62435 3.16031 8.34512L3.67189 7.82909L3.66968 7.82686ZM2.92998 12.1536L1.70868 12.2988C1.31669 12.2988 1 12.4496 1 12.845C1 13.2404 1.31669 13.5598 1.70868 13.5598L3.36628 13.4146C3.78706 13.4146 4.19233 12.9022 4.36286 12.5157L4.70738 11.7227L4.49699 11.5887C4.11955 11.3518 3.82583 11.0008 3.65764 10.5857L2.92998 12.1536Z"/>
</symbol><symbol id="vk" viewBox="0 0 32 32"><g fill="none">
<g clip-path="url(#clip0_2163_6689)">
<path d="M3.66667 6H29V26.6667H3.66667V6Z" fill="white"/>
<path fill-rule="evenodd" clip-rule="evenodd" d="M2.24667 2.24667C0 4.5 0 8.11333 0 15.36V16.64C0 23.88 0 27.5067 2.24667 29.7533C4.5 32 8.11333 32 15.36 32H16.64C23.88 32 27.5067 32 29.7533 29.7533C32 27.5 32 23.8867 32 16.64V15.36C32 8.12 32 4.49333 29.7533 2.24667C27.5 0 23.8867 0 16.64 0H15.36C8.12 0 4.49333 0 2.24667 2.24667ZM5.40667 9.78C5.57333 18.1 9.95333 23.1133 17.1733 23.1133H17.5933V18.3467C20.2267 18.6133 22.1867 20.58 22.9867 23.1133H26.78C26.4058 21.686 25.7359 20.3532 24.8137 19.2013C23.8915 18.0494 22.7376 17.1041 21.4267 16.4267C23.08 15.4333 25.4267 13.0333 25.98 9.78H22.5267C21.8067 12.4267 19.6533 14.8267 17.5933 15.0533V9.78H14.0867V19.0133C11.9533 18.48 9.17333 15.8933 9.06 9.78H5.40667Z" fill="#0077FF"/>
</g>

</g></symbol><symbol id="yandex" viewBox="0 0 32 32"><g fill="none">
<g clip-path="url(#clip0_2163_7972)">
<path d="M16 31.2727C18.0057 31.2727 19.9917 30.8777 21.8446 30.1102C23.6976 29.3426 25.3813 28.2176 26.7995 26.7994C28.2177 25.3812 29.3427 23.6976 30.1102 21.8446C30.8777 19.9916 31.2728 18.0056 31.2728 16C31.2728 13.9943 30.8777 12.0083 30.1102 10.1554C29.3427 8.3024 28.2177 6.61875 26.7995 5.20054C25.3813 3.78234 23.6976 2.65736 21.8446 1.88983C19.9917 1.12231 18.0057 0.727264 16 0.727264C11.9494 0.727264 8.06476 2.33635 5.20057 5.20054C2.33638 8.06473 0.727295 11.9494 0.727295 16C0.727295 20.0506 2.33638 23.9352 5.20057 26.7994C8.06476 29.6636 11.9494 31.2727 16 31.2727Z" fill="#F8604A"/>
<path d="M18.4 25.5491H21.7236V6.44363H16.88C12.0072 6.44363 9.44725 8.94545 9.44725 12.6255C9.44725 15.5491 10.8509 17.3018 13.3527 19.0836L8.99634 25.5418H12.6109L17.4545 18.3127L15.7672 17.1927C13.7309 15.8109 12.7345 14.7491 12.7345 12.4364C12.7345 10.4073 14.1672 9.03273 16.8945 9.03273H18.3854V25.5418H18.3927L18.4 25.5491Z" fill="white"/>
</g>

</g></symbol></svg>