<svg xmlns="http://www.w3.org/2000/svg" xmlns:xlink="http://www.w3.org/1999/xlink"><defs>
<clipPath id="clip0_2202_6690">
<rect width="20" height="20" fill="white"/>
</clipPath>

<clipPath id="clip0_2163_6689">
<rect width="32" height="32" fill="white"/>
</clipPath>

<clipPath id="clip0_2163_7972">
<rect width="32" height="32" fill="white"/>
</clipPath>
</defs><symbol id="another" viewBox="0 0 24 24">
  <path d="M10.4415 6.27426L9.0858 3.00151H14.1303L12.7746 6.27426H10.4415ZM11.589 11.1826L8.30402 3.25229C8.26231 3.15216 8.18262 3.07265 8.0824 3.03116C7.98218 2.98968 7.8696 2.98961 7.76933 3.03097C7.42136 3.1739 7.10521 3.38448 6.8392 3.65048C6.5732 3.91649 6.36262 4.23264 6.21968 4.58061C6.07467 4.9278 6 5.30032 6 5.67657C6 6.05283 6.07467 6.42535 6.21968 6.77254L8.47338 12.2131C9.37629 11.5477 10.4675 11.1868 11.589 11.1826ZM16.996 4.58061C16.8531 4.23264 16.6425 3.91649 16.3765 3.65048C16.1105 3.38448 15.7944 3.1739 15.4464 3.03097C15.3461 2.98961 15.2335 2.98968 15.1333 3.03116C15.0331 3.07265 14.9534 3.15216 14.9117 3.25229L11.6267 11.1826C12.7918 11.1867 13.8669 11.5712 14.7419 12.2131L16.9956 6.77254C17.1408 6.4254 17.2156 6.05289 17.2156 5.67662C17.2157 5.30035 17.1411 4.92781 16.996 4.58061ZM11.6079 13.6363C10.0292 13.6363 8.7442 14.9213 8.7442 16.5C8.7442 18.0787 10.0292 19.3636 11.6079 19.3636C13.1866 19.3636 14.4715 18.0787 14.4715 16.5C14.4715 14.9213 13.187 13.6363 11.6079 13.6363ZM16.1079 16.5C16.1079 18.9852 14.0931 21 11.6079 21C9.12261 21 7.10783 18.9852 7.10783 16.5C7.10783 14.0147 9.12261 11.9999 11.6079 11.9999C14.0931 11.9999 16.1079 14.0147 16.1079 16.5ZM15.2897 16.5C15.2897 14.4696 13.6382 12.8181 11.6079 12.8181C9.57753 12.8181 7.92601 14.4696 7.92601 16.5C7.92601 18.5303 9.57753 20.1818 11.6079 20.1818C13.6382 20.1818 15.2897 18.5303 15.2897 16.5Z"/>
</symbol><symbol id="aquathlon" viewBox="0 0 24 24">
<path d="M8.8139 3.32353C8.8139 4.0545 8.22134 4.64707 7.49037 4.64707C6.7594 4.64707 6.16683 4.0545 6.16683 3.32353C6.16683 2.59257 6.7594 2 7.49037 2C8.22134 2 8.8139 2.59257 8.8139 3.32353Z"/>
<path d="M3.96578 6.35528C4.20935 6.1096 4.54148 5.97062 4.88838 5.97062C4.93513 5.97062 4.98187 5.97311 5.02616 5.97807L4.25855 8.30336C4.02975 8.99821 4.30038 9.76255 4.9179 10.1522L7.03866 11.4898L6.41375 13.6935C6.2932 14.1153 6.53676 14.5546 6.95501 14.6762C7.37326 14.7978 7.80872 14.5521 7.92928 14.1302L8.63537 11.6387C8.78053 11.1274 8.57141 10.5815 8.1261 10.3011L6.72866 9.42009L7.48889 7.37523L7.61436 7.68047C7.9834 8.56889 8.84204 9.14711 9.79662 9.14711H10.3207C10.7561 9.14711 11.108 8.79224 11.108 8.35299C11.108 7.91374 10.7561 7.55887 10.3207 7.55887H9.79662C9.47925 7.55887 9.1914 7.3653 9.07084 7.06999L8.91585 6.69774C8.55665 5.82669 7.83087 5.16161 6.93533 4.88367L5.73717 4.51143C5.46408 4.42705 5.17869 4.38238 4.89084 4.38238C4.12816 4.38238 3.395 4.68762 2.8562 5.23358L2.28542 5.80684C1.97788 6.11704 1.97788 6.62081 2.28542 6.93101C2.59295 7.24122 3.09239 7.24122 3.39992 6.93101L3.96824 6.35776L3.96578 6.35528ZM3.14404 11.1619L1.78729 11.3233C1.35182 11.3233 1 11.4907 1 11.93C1 12.3692 1.35182 12.7241 1.78729 12.7241L3.62873 12.5628C4.09618 12.5628 4.5464 11.9935 4.73584 11.5642L5.11857 10.6832L4.88484 10.5343C4.46555 10.2711 4.13925 9.88121 3.9524 9.42009L3.14404 11.1619Z"/>
<path d="M22.859 20.811C22.7741 20.5987 22.5618 20.4713 22.307 20.5562L21.203 20.9384C20.0565 21.3206 18.7826 21.1932 17.7211 20.6836L17.806 20.5987C18.5279 19.8769 18.5279 18.6879 17.806 17.9661L14.6214 14.7814C14.0694 14.1445 13.0503 14.1445 12.4558 14.739L10.5875 16.6073C10.4601 16.7347 10.3752 16.9045 10.3752 17.1168C10.3752 17.3291 10.4601 17.499 10.5875 17.6264C10.8423 17.8811 11.2244 17.9236 11.4792 17.7113L13.5598 16.3525L14.7488 17.5415L13.6448 18.6455C12.9654 18.603 12.2435 18.6879 11.5641 18.9002L10.4601 19.2824C10.2478 19.3673 10.1204 19.5796 10.2053 19.8344C10.2903 20.0467 10.5026 20.1741 10.7573 20.0892L11.8614 19.707C13.39 19.1975 15.0885 19.5372 16.2774 20.6412C17.254 21.5329 18.5279 22 19.8442 22C20.3962 22 20.9907 21.915 21.5427 21.7452L22.6467 21.363C22.8165 21.2781 22.9439 21.0233 22.859 20.811Z"/>
<path d="M19.5048 17.5415C20.6937 17.5415 21.6279 16.6073 21.6279 15.4184C21.6279 14.2294 20.6937 13.2953 19.5048 13.2953C18.3159 13.2953 17.3817 14.2294 17.3817 15.4184C17.3817 16.6073 18.3159 17.5415 19.5048 17.5415Z"/>
</symbol><symbol id="arrow" viewBox="0 0 10 5"><g fill="none">
<path d="M1 0.5L5 4.5L9 0.5" stroke-linecap="round" stroke-linejoin="round"/>
</g></symbol><symbol id="attention" viewBox="0 0 24 24">
<path d="M12.0004 1.99921C6.48637 1.99921 2.00037 6.48521 2.00037 11.9992C2.00037 17.5132 6.48637 21.9992 12.0004 21.9992C17.5144 21.9992 22.0004 17.5132 22.0004 11.9992C22.0004 6.48521 17.5144 1.99921 12.0004 1.99921ZM13.0004 16.9992H11.0004V10.9992H13.0004V16.9992ZM13.0004 8.99921H11.0004V6.99921H13.0004V8.99921Z"/>
</symbol><symbol id="bicycle-race" viewBox="0 0 24 24">
<path fill-rule="evenodd" clip-rule="evenodd" d="M13.6269 12.2759L11.7143 11.165L12.4129 10.7277L13.104 10.295L13.0771 10.5667C13.0311 11.0292 13.3719 11.4523 13.8009 11.5393C13.8112 11.5414 17.1584 12.1103 17.2805 12.1103C17.7153 12.1103 18.0992 11.7962 18.1727 11.3529C18.2548 10.8593 17.9212 10.393 17.4277 10.3113L14.9635 9.90192L15.0807 8.72597L15.094 8.64141C15.2022 7.95605 15.2393 7.72163 14.9695 7.29058L14.6168 6.72665C14.1611 5.99887 13.2002 5.77633 12.4707 6.23308L8.61008 8.65018C7.66189 9.24387 7.19948 10.4956 7.97359 11.4165C8.27601 11.7763 11.2164 13.5832 11.2164 13.5832L8.83501 16.0534C8.41824 16.4853 8.43063 17.1735 8.86296 17.5899C9.06525 17.7856 9.33579 17.8948 9.61724 17.8945C9.90208 17.8945 10.1865 17.7834 10.3995 17.5619L13.8632 13.9699C14.3518 13.4643 14.2372 12.6304 13.6269 12.2759ZM17.6842 7.34187C18.5309 6.81154 18.7874 5.69565 18.2573 4.84937C17.7274 4.00238 16.6115 3.74588 15.7649 4.27588C14.9186 4.80588 14.6621 5.92138 15.1918 6.76765C15.7217 7.61468 16.8376 7.87154 17.6842 7.34187ZM8.14203 17.8553C7.71609 18.1828 7.1896 18.3856 6.6119 18.3856C5.21972 18.3856 4.08686 17.2527 4.08686 15.8605C4.08686 14.468 5.21972 13.3351 6.6119 13.3351C7.66263 13.3351 8.56377 13.9812 8.94372 14.8961L9.73443 14.076C9.11175 12.9892 7.95418 12.2483 6.6119 12.2483C4.61679 12.2483 3 13.8655 3 15.8605C3 17.8553 4.61679 19.4724 6.6119 19.4724C7.55056 19.4724 8.39748 19.1056 9.03995 18.5182C8.79338 18.4355 8.5595 18.3042 8.35965 18.1118C8.27719 18.0321 8.20604 17.9451 8.14203 17.8553ZM13.7764 15.8605C13.7764 13.9115 15.3724 12.2483 17.3883 12.2483C19.3829 12.2483 21.0002 13.8655 21.0002 15.8605C21.0002 17.8553 19.3829 19.4724 17.3883 19.4724C15.3932 19.4724 13.7764 17.8553 13.7764 15.8605ZM14.8632 15.8605C14.8632 17.2527 15.9961 18.3856 17.3883 18.3856C18.7805 18.3856 19.9134 17.2527 19.9133 15.8605C19.9133 14.468 18.7805 13.3351 17.3883 13.3351C15.9961 13.3351 14.8632 14.468 14.8632 15.8605Z"/>
</symbol><symbol id="birthday" viewBox="0 0 16 16"><g fill="none">
<path d="M8.4 1.46668C8.2846 1.38013 8.14425 1.33334 8 1.33334C7.85575 1.33334 7.7154 1.38013 7.6 1.46668C7.32205 1.67921 7.06591 1.91883 6.83533 2.18201C6.48667 2.57468 6 3.23668 6 4.00001C6 4.53044 6.21071 5.03915 6.58579 5.41422C6.96086 5.7893 7.46957 6.00001 8 6.00001H4C3.46957 6.00001 2.96086 6.21072 2.58579 6.5858C2.21071 6.96087 2 7.46958 2 8.00001V9.33334C2 10.1573 2.94067 10.628 3.6 10.1333L4.04467 9.80001C4.16006 9.71346 4.30042 9.66668 4.44467 9.66668C4.58891 9.66668 4.72927 9.71346 4.84467 9.80001L5.022 9.93334C5.36819 10.193 5.78926 10.3333 6.222 10.3333C6.65474 10.3333 7.07581 10.193 7.422 9.93334L7.6 9.80001C7.7154 9.71346 7.85575 9.66668 8 9.66668C8.14425 9.66668 8.2846 9.71346 8.4 9.80001L8.578 9.93334C8.92419 10.193 9.34526 10.3333 9.778 10.3333C10.2107 10.3333 10.6318 10.193 10.978 9.93334L11.1553 9.80001C11.2707 9.71346 11.4111 9.66668 11.5553 9.66668C11.6996 9.66668 11.8399 9.71346 11.9553 9.80001L12.4 10.1333C13.0593 10.628 14 10.1573 14 9.33334V8.00001C14 7.46958 13.7893 6.96087 13.4142 6.5858C13.0391 6.21072 12.5304 6.00001 12 6.00001H8C8.53043 6.00001 9.03914 5.7893 9.41421 5.41422C9.78929 5.03915 10 4.53044 10 4.00001C10 3.23668 9.51333 2.57468 9.16467 2.18201C8.934 1.92201 8.678 1.67534 8.4 1.46668ZM2.66667 11.61V13.3333C2.66667 13.687 2.80714 14.0261 3.05719 14.2762C3.30724 14.5262 3.64638 14.6667 4 14.6667H12C12.3536 14.6667 12.6928 14.5262 12.9428 14.2762C13.1929 14.0261 13.3333 13.687 13.3333 13.3333V11.61C13.1782 11.6662 13.0114 11.6826 12.8484 11.6575C12.6853 11.6325 12.5311 11.5669 12.4 11.4667L11.9553 11.1333C11.8399 11.0468 11.6996 11 11.5553 11C11.4111 11 11.2707 11.0468 11.1553 11.1333L10.978 11.2667C10.6318 11.5263 10.2107 11.6667 9.778 11.6667C9.34526 11.6667 8.92419 11.5263 8.578 11.2667L8.4 11.1333C8.2846 11.0468 8.14425 11 8 11C7.85575 11 7.7154 11.0468 7.6 11.1333L7.422 11.2667C7.07581 11.5263 6.65474 11.6667 6.222 11.6667C5.78926 11.6667 5.36819 11.5263 5.022 11.2667L4.84467 11.1333C4.72927 11.0468 4.58891 11 4.44467 11C4.30042 11 4.16006 11.0468 4.04467 11.1333L3.6 11.4667C3.4689 11.5669 3.31472 11.6325 3.15164 11.6575C2.98855 11.6826 2.82179 11.6662 2.66667 11.61Z" fill="#999999"/>
</g></symbol><symbol id="calendar" viewBox="0 0 16 17"><g fill="none">
<path d="M12.6667 3.83334H12V2.50001C12 2.3232 11.9298 2.15363 11.8047 2.02861C11.6797 1.90358 11.5101 1.83334 11.3333 1.83334C11.1565 1.83334 10.987 1.90358 10.8619 2.02861C10.7369 2.15363 10.6667 2.3232 10.6667 2.50001V3.83334H5.33334V2.50001C5.33334 2.3232 5.2631 2.15363 5.13807 2.02861C5.01305 1.90358 4.84348 1.83334 4.66667 1.83334C4.48986 1.83334 4.32029 1.90358 4.19526 2.02861C4.07024 2.15363 4 2.3232 4 2.50001V3.83334H3.33334C2.8029 3.83334 2.2942 4.04406 1.91912 4.41913C1.54405 4.7942 1.33334 5.30291 1.33334 5.83334V6.50001H14.6667V5.83334C14.6667 5.30291 14.456 4.7942 14.0809 4.41913C13.7058 4.04406 13.1971 3.83334 12.6667 3.83334ZM1.33334 13.1667C1.33334 13.6971 1.54405 14.2058 1.91912 14.5809C2.2942 14.956 2.8029 15.1667 3.33334 15.1667H12.6667C13.1971 15.1667 13.7058 14.956 14.0809 14.5809C14.456 14.2058 14.6667 13.6971 14.6667 13.1667V7.83334H1.33334V13.1667Z" fill="#999999"/>
</g></symbol><symbol id="captain" viewBox="0 0 17 16"><g fill="none">
<path d="M4.66663 14C4.66663 14 3.66663 14 3.66663 13C3.66663 12 4.66663 9 8.66663 9C12.6666 9 13.6666 12 13.6666 13C13.6666 14 12.6666 14 12.6666 14H4.66663ZM8.66663 8C9.46228 8 10.2253 7.68393 10.7879 7.12132C11.3506 6.55871 11.6666 5.79565 11.6666 5C11.6666 4.20435 11.3506 3.44129 10.7879 2.87868C10.2253 2.31607 9.46228 2 8.66663 2C7.87098 2 7.10791 2.31607 6.54531 2.87868C5.9827 3.44129 5.66663 4.20435 5.66663 5C5.66663 5.79565 5.9827 6.55871 6.54531 7.12132C7.10791 7.68393 7.87098 8 8.66663 8Z" fill="#2E2E2E"/>
</g></symbol><symbol id="certificate" viewBox="0 0 24 24"><g fill="none">
<path d="M20.0625 10.5H13.5C12.9033 10.5 12.331 10.2629 11.909 9.84099C11.4871 9.41903 11.25 8.84674 11.25 8.25V1.6875C11.25 1.63777 11.2302 1.59008 11.1951 1.55492C11.1599 1.51975 11.1122 1.5 11.0625 1.5H6.75C5.95435 1.5 5.19129 1.81607 4.62868 2.37868C4.06607 2.94129 3.75 3.70435 3.75 4.5V19.5C3.75 20.2956 4.06607 21.0587 4.62868 21.6213C5.19129 22.1839 5.95435 22.5 6.75 22.5H17.25C18.0456 22.5 18.8087 22.1839 19.3713 21.6213C19.9339 21.0587 20.25 20.2956 20.25 19.5V10.6875C20.25 10.6378 20.2302 10.5901 20.1951 10.5549C20.1599 10.5198 20.1122 10.5 20.0625 10.5Z" fill="#999999"/>
<path d="M19.6509 8.84016L12.9098 2.09907C12.8967 2.08604 12.8801 2.07717 12.8619 2.07359C12.8438 2.07 12.825 2.07186 12.8079 2.07892C12.7908 2.08599 12.7762 2.09794 12.7659 2.11329C12.7556 2.12863 12.7501 2.14668 12.75 2.16516V8.25001C12.75 8.44892 12.829 8.63969 12.9697 8.78034C13.1103 8.92099 13.3011 9.00001 13.5 9.00001H19.5848C19.6033 8.99993 19.6214 8.99439 19.6367 8.98408C19.6521 8.97378 19.664 8.95916 19.6711 8.94208C19.6782 8.925 19.68 8.90621 19.6764 8.88808C19.6728 8.86994 19.664 8.85327 19.6509 8.84016Z" fill="#999999"/>
</g></symbol><symbol id="check" viewBox="0 0 12 12"><g fill="none"><path d="M2 5 L6 9 L12 3" stroke="currentColor" stroke-width="1.5" fill="none"/></g></symbol><symbol id="club" viewBox="0 0 16 16"><g fill="none">
<path d="M7 14C7 14 6 14 6 13C6 12 7 9 11 9C15 9 16 12 16 13C16 14 15 14 15 14H7ZM11 8C11.7956 8 12.5587 7.68393 13.1213 7.12132C13.6839 6.55871 14 5.79565 14 5C14 4.20435 13.6839 3.44129 13.1213 2.87868C12.5587 2.31607 11.7956 2 11 2C10.2044 2 9.44129 2.31607 8.87868 2.87868C8.31607 3.44129 8 4.20435 8 5C8 5.79565 8.31607 6.55871 8.87868 7.12132C9.44129 7.68393 10.2044 8 11 8ZM5.216 14C5.06782 13.6878 4.9939 13.3455 5 13C5 11.645 5.68 10.25 6.936 9.28C6.30918 9.08644 5.65598 8.99197 5 9C1 9 0 12 0 13C0 14 1 14 1 14H5.216ZM4.5 8C5.16304 8 5.79893 7.73661 6.26777 7.26777C6.73661 6.79893 7 6.16304 7 5.5C7 4.83696 6.73661 4.20107 6.26777 3.73223C5.79893 3.26339 5.16304 3 4.5 3C3.83696 3 3.20107 3.26339 2.73223 3.73223C2.26339 4.20107 2 4.83696 2 5.5C2 6.16304 2.26339 6.79893 2.73223 7.26777C3.20107 7.73661 3.83696 8 4.5 8Z" fill="#999999"/>
</g></symbol><symbol id="cross-2" viewBox="0 0 12 12"><g fill="none"><path d="M3 3 L10 10 M10 3 L3 10" stroke="currentColor" stroke-width="1.5" fill="none"/></g></symbol><symbol id="cross-3" viewBox="0 0 32 32">
<path d="M7 7L25 25M25 7L7 25" stroke="#999999" stroke-width="2" stroke-linecap="round"/>
</symbol><symbol id="cross" viewBox="0 0 24 24"><g fill="none">
<path d="M3 3L21 21M21 3L3 21" stroke-width="2" stroke-linecap="round"/>
</g></symbol><symbol id="cup" viewBox="0 0 24 24">
<path d="M20.4745 4.53452C20.1145 4.15202 19.6037 3.93151 19.0771 3.93151H17.4007C17.4074 3.63 17.4119 3.31953 17.4119 3H6.59934C6.59934 3.31948 6.60382 3.63 6.61059 3.93151H4.92289C4.39631 3.93151 3.88552 4.15202 3.52548 4.53452C3.1609 4.91931 2.97192 5.44577 3.00339 5.97905C3.30493 11.0055 5.89951 14.16 10.013 14.628L9.21638 17.4C8.26903 17.4 7.50169 18.1672 7.50169 19.1145V21H16.5118V19.1145C16.5118 18.1672 15.7445 17.4 14.7971 17.4L14.0005 14.628C18.105 14.1555 20.6973 11.0033 20.9966 5.97905C21.0281 5.44806 20.8391 4.92155 20.4745 4.53452ZM4.80136 5.87103C4.79912 5.82155 4.81938 5.7878 4.83736 5.76978C4.87111 5.73379 4.91164 5.73379 4.92289 5.73379H6.69612C6.96391 9.27305 7.74474 11.28 8.50311 12.414C5.61599 11.2035 4.92737 7.97029 4.80136 5.87103ZM15.5082 12.4073C16.2665 11.271 17.0451 9.26628 17.3129 5.73155H19.0794C19.0928 5.73155 19.1311 5.73155 19.1649 5.76754C19.1829 5.78555 19.2031 5.8193 19.2009 5.86879C19.0726 7.96805 18.3863 11.1923 15.5082 12.4073Z"/>
</symbol><symbol id="duathlon" viewBox="0 0 24 24">
<path d="M9.05796 3.36486C9.05796 4.11865 8.44689 4.72972 7.6931 4.72972C6.9393 4.72972 6.32823 4.11865 6.32823 3.36486C6.32823 2.61107 6.9393 2 7.6931 2C8.44689 2 9.05796 2.61107 9.05796 3.36486Z"/>
<path d="M4.05838 6.49123C4.30956 6.23788 4.65206 6.09457 5.00979 6.09457C5.058 6.09457 5.1062 6.09713 5.15187 6.10224L4.3603 8.50014C4.12435 9.21669 4.40343 10.0049 5.04024 10.4067L7.22721 11.786L6.58279 14.0585C6.45847 14.4936 6.70965 14.9465 7.14095 15.0719C7.57226 15.1973 8.02132 14.944 8.14564 14.5089L8.87379 11.9396C9.02347 11.4124 8.80782 10.8494 8.34861 10.5602L6.90754 9.65174L7.6915 7.54303L7.82089 7.8578C8.20146 8.77396 9.0869 9.37024 10.0713 9.37024H10.6117C11.0608 9.37024 11.4236 9.00428 11.4236 8.55132C11.4236 8.09836 11.0608 7.7324 10.6117 7.7324H10.0713C9.74401 7.7324 9.44717 7.53279 9.32285 7.22826L9.16302 6.84439C8.7926 5.94614 8.04416 5.2603 7.12066 4.97367L5.88509 4.58981C5.60347 4.5028 5.30917 4.45673 5.01233 4.45673C4.22583 4.45673 3.46978 4.7715 2.91416 5.33451L2.32555 5.92566C2.00842 6.24555 2.00842 6.76506 2.32555 7.08494C2.64269 7.40483 3.15772 7.40483 3.47486 7.08494L4.06092 6.49379L4.05838 6.49123ZM3.21098 11.448L1.81187 11.6143C1.3628 11.6143 1 11.787 1 12.24C1 12.693 1.3628 13.0589 1.81187 13.0589L3.71081 12.8926C4.19286 12.8926 4.65714 12.3055 4.85249 11.8628L5.24717 10.9543L5.00615 10.8008C4.57376 10.5294 4.23727 10.1273 4.04459 9.65174L3.21098 11.448Z"/>
<path d="M13.48 20.8227C13.1699 21.0612 12.7866 21.2088 12.366 21.2088C11.3525 21.2088 10.5278 20.3841 10.5278 19.3705C10.5278 18.3568 11.3525 17.5321 12.366 17.5321C13.131 17.5321 13.787 18.0024 14.0636 18.6684L14.6392 18.0714C14.1859 17.2802 13.3432 16.7408 12.366 16.7408C10.9136 16.7408 9.73655 17.9181 9.73655 19.3705C9.73655 20.8227 10.9136 22 12.366 22C13.0494 22 13.6659 21.7329 14.1337 21.3054C13.9541 21.2451 13.7839 21.1496 13.6384 21.0095C13.5784 20.9515 13.5266 20.8881 13.48 20.8227Z"/>
<path d="M17.4731 16.761L16.0807 15.9522C16.7017 15.5636 16.4714 15.7075 17.0924 15.3188L17.0728 15.5167C17.0393 15.8533 17.2874 16.1614 17.5998 16.2247C17.6073 16.2262 20.0441 16.6404 20.1329 16.6404C20.4495 16.6404 20.729 16.4117 20.7825 16.089C20.8423 15.7297 20.5994 15.3902 20.2401 15.3307L18.4461 15.0327L18.5314 14.1766C18.6174 13.6295 18.6548 13.458 18.4505 13.1316L18.1937 12.7211C17.862 12.1913 17.1625 12.0292 16.6314 12.3618L13.8208 14.1214C13.1306 14.5536 12.7939 15.4649 13.3575 16.1353C13.5776 16.3972 15.7182 17.7127 15.7182 17.7127L13.9846 19.511C13.6812 19.8254 13.6902 20.3264 14.0049 20.6296C14.1522 20.772 14.3492 20.8516 14.5541 20.8513C14.7614 20.8513 14.9685 20.7704 15.1236 20.6092L17.6451 17.9942C18.0008 17.6261 17.9174 17.019 17.4731 16.761ZM20.4268 13.169C21.0432 12.7829 21.2299 11.9705 20.8441 11.3544C20.4583 10.7378 19.6459 10.5511 19.0296 10.9369C18.4135 11.3228 18.2267 12.1348 18.6123 12.7509C18.9981 13.3676 19.8105 13.5546 20.4268 13.169Z"/>
<path d="M20.2111 16.7408C18.7435 16.7408 17.5816 17.9517 17.5816 19.3705C17.5816 20.8227 18.7587 22 20.2111 22C21.6632 22 22.8406 20.8227 22.8406 19.3705C22.8406 17.9181 21.6632 16.7408 20.2111 16.7408ZM20.2111 21.2088C19.1976 21.2088 18.3728 20.3841 18.3728 19.3705C18.3728 18.3568 19.1976 17.5321 20.2111 17.5321C21.2246 17.5321 22.0493 18.3568 22.0493 19.3705C22.0494 20.3841 21.2246 21.2088 20.2111 21.2088Z"/>
</symbol><symbol id="edit" viewBox="0 0 16 16"><g fill="none">
<path d="M2.94666 13.7193C2.75965 13.719 2.58137 13.6401 2.45533 13.502C2.32696 13.365 2.26317 13.1797 2.28 12.9926L2.44333 11.1966L9.98866 3.65398L12.3467 6.01131L4.80333 13.5533L3.00733 13.7166C2.98666 13.7186 2.966 13.7193 2.94666 13.7193ZM12.8173 5.53998L10.46 3.18264L11.874 1.76864C11.999 1.64346 12.1687 1.57312 12.3457 1.57312C12.5226 1.57312 12.6923 1.64346 12.8173 1.76864L14.2313 3.18264C14.3565 3.30769 14.4269 3.47737 14.4269 3.65431C14.4269 3.83125 14.3565 4.00093 14.2313 4.12598L12.818 5.53931L12.8173 5.53998Z" fill="#999999" stroke="none"/>
</g></symbol><symbol id="fight" viewBox="0 0 24 24">
<path d="M7.06462 14.0288L8.92744 15.8916V19.5961C8.92744 20.1575 9.38214 20.6122 9.94352 20.6122C10.5049 20.6122 10.9596 20.1575 10.9596 19.5961V15.4709C10.9596 15.2016 10.8529 14.9434 10.6624 14.7528L9.27036 13.3608L10.8334 11.9315L13.2889 14.3879C13.294 14.3925 13.2991 14.3974 13.3041 14.4023C13.3092 14.4071 13.3143 14.412 13.3194 14.4167L15.1144 16.0991C16.0128 16.9416 17.4065 16.956 18.3219 16.1321L19.9908 14.63C20.7359 13.9594 21.1034 12.9662 20.9747 11.9721L19.9265 3.88573C19.8545 3.32859 19.3448 2.93655 18.7884 3.00852C18.2321 3.08049 17.8393 3.59022 17.9112 4.14652L18.7173 10.3642L17.2694 8.75536L17.5581 6.16092C17.62 5.60293 17.2178 5.10082 16.6598 5.03816C16.1026 4.97634 15.5997 5.37854 15.5378 5.93569L15.1992 8.98467C15.1678 9.27256 15.2601 9.56044 15.454 9.77636L17.0476 11.5469L15.1136 13.3132L14.714 12.938L11.0628 9.28689C10.1712 8.39527 8.7376 8.35717 7.80032 9.20137L7.74443 9.25132C7.73174 9.26148 7.71903 9.27165 7.70633 9.2835L7.56662 9.41136L6.04165 10.7839C5.39899 11.3622 5.03236 12.1852 5.03236 13.0497V15.9277L3.145 19.0734C2.85627 19.5543 3.01207 20.1783 3.49386 20.4671C3.97481 20.7558 4.59885 20.6 4.88758 20.1182L6.91974 16.7313C7.01457 16.5738 7.06453 16.3934 7.06453 16.2089L7.06462 14.0288Z"/>
<path d="M12.4843 9.09675C13.6071 9.09675 14.5165 8.18736 14.5165 7.06459C14.5165 5.94267 13.6071 5.03244 12.4843 5.03244C11.3615 5.03244 10.4521 5.94267 10.4521 7.06459C10.4521 8.18736 11.3615 9.09675 12.4843 9.09675Z"/>
<path d="M13.6689 16.2092C12.5461 16.2092 11.6367 17.1186 11.6367 18.2414C11.6367 19.3641 12.5461 20.2735 13.6689 20.2735C14.7916 20.2735 15.701 19.3641 15.701 18.2414C15.701 17.1186 14.7916 16.2092 13.6689 16.2092Z"/>
</symbol><symbol id="gender-female" viewBox="0 0 24 24"><g fill="none">
<path d="M16.6978 13.3349C19.2882 10.7453 19.2882 6.53176 16.6978 3.9422C14.1074 1.3526 9.89258 1.3526 7.30216 3.9422C4.71178 6.53176 4.71178 10.7453 7.30216 13.3349C8.39864 14.431 9.78618 15.063 11.2183 15.2312V17.4547H9.65512C9.22344 17.4547 8.87352 17.8046 8.87352 18.2361C8.87352 18.6676 9.22344 19.0175 9.65512 19.0175H11.2183V21.2185C11.2184 21.6501 11.5683 21.9999 12 21.9999C12.4317 21.9999 12.7816 21.6501 12.7816 21.2185V19.0175H14.3448C14.7765 19.0175 15.1264 18.6676 15.1264 18.2361C15.1264 17.8046 14.7765 17.4547 14.3448 17.4547H12.7816V15.2312C14.2138 15.063 15.6013 14.431 16.6978 13.3349ZM8.40755 12.2298C6.42666 10.2496 6.42666 7.02746 8.40755 5.0472C10.3884 3.06701 13.6115 3.06689 15.5924 5.0472C17.5733 7.02746 17.5733 10.2496 15.5924 12.2298C13.6116 14.2101 10.3884 14.2101 8.40755 12.2298Z" fill="#999999"/>
</g></symbol><symbol id="gender-male" viewBox="0 0 24 24"><g fill="none">
<path d="M21.9892 2.72594C21.9801 2.65406 21.9642 2.5849 21.938 2.52C21.9371 2.51844 21.9371 2.51615 21.9367 2.51411C21.9367 2.5137 21.9363 2.51328 21.9359 2.51292C21.907 2.44453 21.8676 2.3825 21.823 2.3249C21.812 2.3113 21.8012 2.29781 21.7896 2.28505C21.742 2.2313 21.6904 2.18167 21.6303 2.1412C21.6287 2.13995 21.6267 2.13958 21.6251 2.13833C21.567 2.1001 21.503 2.0712 21.4358 2.04844C21.4192 2.0425 21.4029 2.03745 21.3858 2.03297C21.3154 2.01385 21.243 2 21.1667 2H15.3333C14.8733 2 14.5 2.37333 14.5 2.83333C14.5 3.29333 14.8733 3.66667 15.3333 3.66667H19.1545L14.1808 8.64042C12.8545 7.57969 11.2216 7 9.5 7C5.36469 7 2 10.3647 2 14.5C2 18.6353 5.36469 22 9.5 22C13.6353 22 17 18.6353 17 14.5C17 12.7792 16.4208 11.1467 15.3592 9.81922L20.3333 4.84505V8.66667C20.3333 9.12667 20.7067 9.5 21.1667 9.5C21.6267 9.5 22 9.12667 22 8.66667V2.83333C22 2.81583 21.9959 2.79917 21.9949 2.78208C21.9936 2.76329 21.9917 2.7446 21.9892 2.72594ZM9.5 20.3333C6.28323 20.3333 3.66667 17.7168 3.66667 14.5C3.66667 11.2832 6.28323 8.66667 9.5 8.66667C11.0574 8.66667 12.5237 9.27292 13.6262 10.3716C14.727 11.4763 15.3333 12.9426 15.3333 14.5C15.3333 17.7168 12.7168 20.3333 9.5 20.3333Z" fill="#999999"/>
</g></symbol><symbol id="hide-password" viewBox="0 0 20 20"><g fill="none">
<g clip-path="url(#clip0_2202_6690)">
<path d="M14.95 14.9499C13.5255 16.0358 11.7909 16.6373 9.99998 16.6666C4.16665 16.6666 0.833313 9.99994 0.833313 9.99994C1.86989 8.06819 3.30759 6.38045 5.04998 5.04994M8.24998 3.53327C8.82359 3.39901 9.41087 3.33189 9.99998 3.33327C15.8333 3.33327 19.1666 9.99994 19.1666 9.99994C18.6608 10.9463 18.0575 11.8372 17.3666 12.6583M11.7666 11.7666C11.5378 12.0122 11.2618 12.2092 10.9551 12.3459C10.6484 12.4825 10.3174 12.556 9.98172 12.5619C9.64605 12.5678 9.31262 12.5061 9.00132 12.3803C8.69003 12.2546 8.40725 12.0675 8.16985 11.8301C7.93246 11.5927 7.74531 11.3099 7.61957 10.9986C7.49383 10.6873 7.43209 10.3539 7.43801 10.0182C7.44393 9.68252 7.5174 9.35148 7.65404 9.04481C7.79068 8.73815 7.98769 8.46215 8.23331 8.23327" stroke-width="1.5" stroke-linecap="round" stroke-linejoin="round"/>
<path d="M0.833313 0.833374L19.1666 19.1667" stroke-width="1.5" stroke-linecap="round" stroke-linejoin="round"/>
</g>

</g></symbol><symbol id="like-menu" viewBox="0 0 32 32"><g fill="none">
<path d="M21.5594 4C20.316 4 19.1277 4.28282 18.0274 4.84066C17.2784 5.22031 16.5904 5.72474 16 6.32322C15.4096 5.72474 14.7216 5.22031 13.9726 4.84066C12.8723 4.28282 11.684 4 10.4406 4C6.15408 4 2.66669 7.46033 2.66669 11.7136C2.66669 14.7262 4.27015 17.9257 7.43249 21.2235C10.0729 23.977 13.3055 26.2723 15.5524 27.713L16 28L16.4476 27.713C18.6945 26.2724 21.9272 23.977 24.5676 21.2235C27.7299 17.9257 29.3334 14.7262 29.3334 11.7136C29.3334 7.46033 25.846 4 21.5594 4Z" fill="#999999"/>
</g></symbol><symbol id="like" viewBox="0 0 20 18">
<path d="M11.822 1.22513L11.822 1.2251C12.553 0.85449 13.3409 0.666667 14.1695 0.666667C17.0212 0.666667 19.3333 2.96833 19.3333 5.78523C19.3333 7.80193 18.2573 10.0443 15.9445 12.4562C14.0259 14.457 11.6648 16.139 10 17.208C8.33517 16.139 5.97407 14.457 4.05554 12.4562C1.74268 10.0443 0.666667 7.80193 0.666667 5.78523C0.666667 2.96832 2.97883 0.666667 5.83043 0.666667C6.65909 0.666667 7.44697 0.854489 8.17801 1.22511L8.17804 1.22513C8.67477 1.47691 9.13246 1.81229 9.5254 2.21061L10 2.69169L10.4746 2.2106C10.8675 1.81229 11.3252 1.47691 11.822 1.22513Z" stroke-width="1.33333"/>
</symbol><symbol id="link" viewBox="0 0 16 16"><g fill="none">
<path d="M9.46864 6.53035C9.3107 6.37147 9.13557 6.23064 8.94652 6.11042C8.44578 5.78978 7.86364 5.61939 7.26903 5.61939C6.44374 5.61785 5.65198 5.94576 5.06943 6.53035L2.24327 9.35872C1.66171 9.94141 1.33484 10.7309 1.33432 11.5541C1.33323 13.272 2.72496 14.6656 4.44288 14.6667C5.26689 14.6695 6.05792 14.3432 6.64027 13.7602L8.97318 11.4272C9.01557 11.3852 9.03924 11.3279 9.0389 11.2682C9.0382 11.1455 8.93813 11.0466 8.81542 11.0473H8.72656C8.23915 11.049 7.75608 10.9554 7.3046 10.7718C7.22141 10.7376 7.1258 10.7569 7.06243 10.8207L5.38495 12.5004C4.86405 13.0213 4.01951 13.0213 3.49862 12.5004C2.97772 11.9795 2.97772 11.1349 3.49862 10.614L6.3359 7.77901C6.85637 7.25918 7.69953 7.25918 8.22001 7.77901C8.57078 8.10913 9.11792 8.10913 9.46867 7.77901C9.61957 7.62796 9.71107 7.42764 9.7264 7.21465C9.74263 6.96014 9.64876 6.71089 9.46864 6.53035Z" fill="#999999"/>
<path d="M13.7542 2.24442C12.5394 1.02961 10.5698 1.02961 9.35502 2.24442L7.02431 4.57288C6.96032 4.63719 6.94186 4.73392 6.97766 4.81729C7.01304 4.90089 7.09573 4.95456 7.1865 4.95281H7.2687C7.75554 4.95193 8.23782 5.04626 8.68844 5.23055C8.77163 5.26479 8.86724 5.24547 8.93061 5.18168L10.6036 3.51086C11.1245 2.98996 11.9691 2.98996 12.49 3.51086C13.0109 4.03175 13.0109 4.87629 12.49 5.39718L10.4059 7.47902L10.3881 7.49902L9.65936 8.22334C9.13888 8.74317 8.29573 8.74317 7.77525 8.22334C7.42448 7.89322 6.87734 7.89322 6.52659 8.22334C6.37472 8.37553 6.28315 8.5776 6.26885 8.79212C6.2526 9.04663 6.34647 9.29588 6.52659 9.47645C6.78376 9.73471 7.08464 9.94532 7.41531 10.0986C7.46197 10.1208 7.50863 10.1385 7.55529 10.1585C7.60195 10.1785 7.65082 10.1941 7.69747 10.2119C7.74413 10.2296 7.793 10.2452 7.83966 10.2585L7.97076 10.2941C8.05962 10.3163 8.14851 10.3341 8.23959 10.3496C8.34931 10.3659 8.45981 10.3763 8.57065 10.3807H8.72617H8.7395L8.87281 10.3652C8.92168 10.363 8.97279 10.3518 9.03057 10.3518H9.1061L9.25941 10.3296L9.33051 10.3163L9.45937 10.2896H9.48382C10.0296 10.1526 10.5279 9.86997 10.9258 9.472L13.7541 6.64363C14.969 5.42882 14.969 3.45923 13.7542 2.24442Z" fill="#999999"/>
</g></symbol><symbol id="list-2" viewBox="0 0 24 24">
<path fill-rule="evenodd" clip-rule="evenodd" d="M2.36705 16.632H4.13269C4.63608 16.632 5.04661 17.0425 5.04661 17.5459V19.3115C5.04661 19.8149 4.63608 20.2255 4.13269 20.2255H2.36705C1.86366 20.2255 1.45312 19.815 1.45312 19.3115V17.5459C1.45312 17.0425 1.86366 16.632 2.36705 16.632ZM8.79577 3.77457H21.633C22.1363 3.77457 22.5469 4.18514 22.5469 4.68849V6.45413C22.5469 6.95747 22.1363 7.36805 21.633 7.36805H8.79577C8.29242 7.36805 7.88184 6.95752 7.88184 6.45413V4.68849C7.88184 4.1851 8.29242 3.77457 8.79577 3.77457ZM2.36705 3.77457H4.13269C4.63608 3.77457 5.04661 4.18514 5.04661 4.68849V6.45413C5.04661 6.95752 4.63608 7.36805 4.13269 7.36805H2.36705C1.86366 7.36805 1.45312 6.95752 1.45312 6.45413V4.68849C1.45312 4.1851 1.86366 3.77457 2.36705 3.77457ZM8.79577 10.2032H21.633C22.1363 10.2032 22.5469 10.6138 22.5469 11.1172V12.8828C22.5469 13.3861 22.1363 13.7967 21.633 13.7967H8.79577C8.29242 13.7967 7.88184 13.3862 7.88184 12.8828V11.1172C7.88184 10.6138 8.29242 10.2032 8.79577 10.2032ZM2.36705 10.2032H4.13269C4.63608 10.2032 5.04661 10.6138 5.04661 11.1172V12.8828C5.04661 13.3862 4.63608 13.7967 4.13269 13.7967H2.36705C1.86366 13.7967 1.45312 13.3862 1.45312 12.8828V11.1172C1.45312 10.6138 1.86366 10.2032 2.36705 10.2032ZM8.79577 16.632H21.633C22.1363 16.632 22.5469 17.0425 22.5469 17.5459V19.3115C22.5469 19.8149 22.1363 20.2254 21.633 20.2254H8.79577C8.29242 20.2254 7.88184 19.8149 7.88184 19.3115V17.5459C7.88184 17.0425 8.29242 16.632 8.79577 16.632Z"/>
</symbol><symbol id="list-3" viewBox="0 0 32 32">
<path d="M26 4H6C5.46957 4 4.96086 4.21071 4.58579 4.58579C4.21071 4.96086 4 5.46957 4 6V26C4 26.5304 4.21071 27.0391 4.58579 27.4142C4.96086 27.7893 5.46957 28 6 28H26C26.5304 28 27.0391 27.7893 27.4142 27.4142C27.7893 27.0391 28 26.5304 28 26V6C28 5.46957 27.7893 4.96086 27.4142 4.58579C27.0391 4.21071 26.5304 4 26 4ZM24 23H8C7.73478 23 7.48043 22.8946 7.29289 22.7071C7.10536 22.5196 7 22.2652 7 22C7 21.7348 7.10536 21.4804 7.29289 21.2929C7.48043 21.1054 7.73478 21 8 21H24C24.2652 21 24.5196 21.1054 24.7071 21.2929C24.8946 21.4804 25 21.7348 25 22C25 22.2652 24.8946 22.5196 24.7071 22.7071C24.5196 22.8946 24.2652 23 24 23ZM24 17H8C7.73478 17 7.48043 16.8946 7.29289 16.7071C7.10536 16.5196 7 16.2652 7 16C7 15.7348 7.10536 15.4804 7.29289 15.2929C7.48043 15.1054 7.73478 15 8 15H24C24.2652 15 24.5196 15.1054 24.7071 15.2929C24.8946 15.4804 25 15.7348 25 16C25 16.2652 24.8946 16.5196 24.7071 16.7071C24.5196 16.8946 24.2652 17 24 17ZM24 11H8C7.73478 11 7.48043 10.8946 7.29289 10.7071C7.10536 10.5196 7 10.2652 7 10C7 9.73478 7.10536 9.48043 7.29289 9.29289C7.48043 9.10536 7.73478 9 8 9H24C24.2652 9 24.5196 9.10536 24.7071 9.29289C24.8946 9.48043 25 9.73478 25 10C25 10.2652 24.8946 10.5196 24.7071 10.7071C24.5196 10.8946 24.2652 11 24 11Z"/>
</symbol><symbol id="list" viewBox="0 0 32 32"><g fill="none">
<path d="M26 4H6C5.46957 4 4.96086 4.21071 4.58579 4.58579C4.21071 4.96086 4 5.46957 4 6V26C4 26.5304 4.21071 27.0391 4.58579 27.4142C4.96086 27.7893 5.46957 28 6 28H26C26.5304 28 27.0391 27.7893 27.4142 27.4142C27.7893 27.0391 28 26.5304 28 26V6C28 5.46957 27.7893 4.96086 27.4142 4.58579C27.0391 4.21071 26.5304 4 26 4ZM24 23H8C7.73478 23 7.48043 22.8946 7.29289 22.7071C7.10536 22.5196 7 22.2652 7 22C7 21.7348 7.10536 21.4804 7.29289 21.2929C7.48043 21.1054 7.73478 21 8 21H24C24.2652 21 24.5196 21.1054 24.7071 21.2929C24.8946 21.4804 25 21.7348 25 22C25 22.2652 24.8946 22.5196 24.7071 22.7071C24.5196 22.8946 24.2652 23 24 23ZM24 17H8C7.73478 17 7.48043 16.8946 7.29289 16.7071C7.10536 16.5196 7 16.2652 7 16C7 15.7348 7.10536 15.4804 7.29289 15.2929C7.48043 15.1054 7.73478 15 8 15H24C24.2652 15 24.5196 15.1054 24.7071 15.2929C24.8946 15.4804 25 15.7348 25 16C25 16.2652 24.8946 16.5196 24.7071 16.7071C24.5196 16.8946 24.2652 17 24 17ZM24 11H8C7.73478 11 7.48043 10.8946 7.29289 10.7071C7.10536 10.5196 7 10.2652 7 10C7 9.73478 7.10536 9.48043 7.29289 9.29289C7.48043 9.10536 7.73478 9 8 9H24C24.2652 9 24.5196 9.10536 24.7071 9.29289C24.8946 9.48043 25 9.73478 25 10C25 10.2652 24.8946 10.5196 24.7071 10.7071C24.5196 10.8946 24.2652 11 24 11Z" fill="#999999"/>
</g></symbol><symbol id="login" viewBox="0 0 32 32"><g fill="none">
<path d="M25.5999 27.2V24.8C25.5999 23.527 25.0942 22.3061 24.194 21.4059C23.2938 20.5057 22.0729 20 20.7999 20H11.1999C9.92686 20 8.70596 20.5057 7.80579 21.4059C6.90561 22.3061 6.3999 23.527 6.3999 24.8V27.2" stroke-width="2" stroke-linecap="round" stroke-linejoin="round"/>
<path d="M16.0002 15.2C18.6512 15.2 20.8002 13.051 20.8002 10.4C20.8002 7.74903 18.6512 5.6 16.0002 5.6C13.3492 5.6 11.2002 7.74903 11.2002 10.4C11.2002 13.051 13.3492 15.2 16.0002 15.2Z" stroke-width="2" stroke-linecap="round" stroke-linejoin="round"/>
</g></symbol><symbol id="mail" viewBox="0 0 16 16"><g fill="none">
<path d="M11.3333 2.33344H4.66665C2.66665 2.33344 1.33332 3.33344 1.33332 5.66677V10.3334C1.33332 12.6668 2.66665 13.6668 4.66665 13.6668H11.3333C13.3333 13.6668 14.6667 12.6668 14.6667 10.3334V5.66677C14.6667 3.33344 13.3333 2.33344 11.3333 2.33344ZM11.6467 6.39344L9.55999 8.0601C9.11999 8.41344 8.55999 8.58677 7.99999 8.58677C7.43999 8.58677 6.87332 8.41344 6.43999 8.0601L4.35332 6.39344C4.13999 6.2201 4.10665 5.9001 4.27332 5.68677C4.44665 5.47343 4.75999 5.43343 4.97332 5.60677L7.05999 7.27344C7.56665 7.6801 8.42665 7.6801 8.93332 7.27344L11.02 5.60677C11.2333 5.43343 11.5533 5.46677 11.72 5.68677C11.8933 5.9001 11.86 6.2201 11.6467 6.39344Z" fill="#999999"/>
</g></symbol><symbol id="map" viewBox="0 0 16 16"><g fill="none">
<path fill-rule="evenodd" clip-rule="evenodd" d="M13.5866 5.66668C12.28 -0.106655 3.72664 -0.113322 2.4133 5.66001C1.64664 9.04668 3.7533 11.92 5.5933 13.6933C6.93997 14.9867 9.05997 14.9867 10.4 13.6933C12.2466 11.92 14.3533 9.05334 13.5866 5.66668ZM10.08 6.87334C10.08 8.0221 9.14872 8.95334 7.99997 8.95334C6.85122 8.95334 5.91997 8.0221 5.91997 6.87334C5.91997 5.72459 6.85122 4.79334 7.99997 4.79334C9.14872 4.79334 10.08 5.72459 10.08 6.87334Z" fill="#999999"/>
</g></symbol><symbol id="paper" viewBox="0 0 32 32"><g fill="none">
<path d="M26.75 14H18C17.2044 14 16.4413 13.6839 15.8787 13.1213C15.3161 12.5587 15 11.7956 15 11V2.25C15 2.1837 14.9737 2.12011 14.9268 2.07322C14.8799 2.02634 14.8163 2 14.75 2H9C7.93913 2 6.92172 2.42143 6.17157 3.17157C5.42143 3.92172 5 4.93913 5 6V26C5 27.0609 5.42143 28.0783 6.17157 28.8284C6.92172 29.5786 7.93913 30 9 30H23C24.0609 30 25.0783 29.5786 25.8284 28.8284C26.5786 28.0783 27 27.0609 27 26V14.25C27 14.1837 26.9737 14.1201 26.9268 14.0732C26.8799 14.0263 26.8163 14 26.75 14Z" fill="#999999"/>
<path d="M26.2013 11.7869L17.2131 2.79874C17.1956 2.78136 17.1734 2.76954 17.1492 2.76476C17.1251 2.75998 17.1 2.76246 17.0772 2.77188C17.0545 2.78129 17.035 2.79723 17.0212 2.81769C17.0075 2.83815 17.0001 2.86222 17 2.88687V11C17 11.2652 17.1054 11.5196 17.2929 11.7071C17.4804 11.8946 17.7348 12 18 12H26.1131C26.1378 11.9999 26.1618 11.9925 26.1823 11.9788C26.2028 11.965 26.2187 11.9455 26.2281 11.9228C26.2375 11.9 26.24 11.8749 26.2352 11.8507C26.2304 11.8266 26.2186 11.8043 26.2013 11.7869Z" fill="#999999"/>
</g></symbol><symbol id="phone" viewBox="0 0 16 16"><g fill="none">
<path d="M14.6467 12.22C14.6467 12.46 14.5933 12.7067 14.48 12.9467C14.3667 13.1867 14.22 13.4133 14.0267 13.6267C13.7 13.9867 13.34 14.2467 12.9333 14.4133C12.5333 14.58 12.1 14.6667 11.6333 14.6667C10.9533 14.6667 10.2267 14.5067 9.45999 14.18C8.69332 13.8533 7.92666 13.4133 7.16666 12.86C6.39999 12.3 5.67332 11.68 4.97999 10.9933C4.29332 10.3 3.67332 9.57334 3.11999 8.81334C2.57332 8.05334 2.13332 7.29334 1.81332 6.54001C1.49332 5.78001 1.33332 5.05334 1.33332 4.36001C1.33332 3.90668 1.41332 3.47334 1.57332 3.07334C1.73332 2.66668 1.98665 2.29334 2.33999 1.96001C2.76665 1.54001 3.23332 1.33334 3.72665 1.33334C3.91332 1.33334 4.09999 1.37334 4.26665 1.45334C4.43999 1.53334 4.59332 1.65334 4.71332 1.82668L6.25999 4.00668C6.37999 4.17334 6.46665 4.32668 6.52666 4.47334C6.58666 4.61334 6.61999 4.75334 6.61999 4.88001C6.61999 5.04001 6.57332 5.20001 6.47999 5.35334C6.39332 5.50668 6.26665 5.66668 6.10665 5.82668L5.59999 6.35334C5.52665 6.42668 5.49332 6.51334 5.49332 6.62001C5.49332 6.67334 5.49999 6.72001 5.51332 6.77334C5.53332 6.82668 5.55332 6.86668 5.56666 6.90668C5.68666 7.12668 5.89332 7.41334 6.18665 7.76001C6.48665 8.10668 6.80665 8.46001 7.15332 8.81334C7.51332 9.16668 7.85999 9.49334 8.21332 9.79334C8.55999 10.0867 8.84666 10.2867 9.07332 10.4067C9.10666 10.42 9.14666 10.44 9.19332 10.46C9.24666 10.48 9.29999 10.4867 9.35999 10.4867C9.47332 10.4867 9.55999 10.4467 9.63332 10.3733L10.14 9.87334C10.3067 9.70668 10.4667 9.58001 10.62 9.50001C10.7733 9.40668 10.9267 9.36001 11.0933 9.36001C11.22 9.36001 11.3533 9.38668 11.5 9.44668C11.6467 9.50668 11.8 9.59334 11.9667 9.70668L14.1733 11.2733C14.3467 11.3933 14.4667 11.5333 14.54 11.7C14.6067 11.8667 14.6467 12.0333 14.6467 12.22Z" fill="#999999"/>
</g></symbol><symbol id="plus" viewBox="0 0 25 26"><g fill="none">
<path d="M1.18652 13H23.8139M12.5002 1.68629V24.3137" stroke="#999999" stroke-width="2" stroke-linecap="round"/>
</g></symbol><symbol id="present" viewBox="0 0 32 32"><g fill="none">
<path d="M16.049 10.9946H15.7642C15.63 10.9894 15.499 10.9547 15.3814 10.8932C15.2638 10.8318 15.1629 10.7452 15.0866 10.6404C15.0104 10.5355 14.9609 10.4153 14.942 10.2892C14.9231 10.1631 14.9355 10.0346 14.978 9.91378C15.3768 8.96267 15.7414 7.98994 16.0376 7.03883C16.2883 6.30388 17.2682 4.00177 19.7294 4.00177C20.6885 3.97261 21.6208 4.3056 22.3214 4.92767C23.0221 5.54973 23.434 6.41005 23.4667 7.31984C23.4667 9.4058 20.9713 10.2596 20.0484 10.5623C18.7436 10.8852 17.397 11.0308 16.049 10.9946ZM19.718 5.59055C18.4076 5.59055 17.8151 7.02802 17.667 7.47115C17.4619 8.09802 17.2454 8.72489 17.0061 9.35176C17.823 9.34684 18.6355 9.23778 19.4217 9.02752C20.0712 8.81136 21.7006 8.22772 21.7006 7.28742C21.6655 6.81632 21.4394 6.37643 21.0697 6.06005C20.7001 5.74367 20.2156 5.5754 19.718 5.59055Z" fill="#999999"/>
<path d="M15.8709 10.9979C14.5503 11.0199 13.2329 10.8675 11.9569 10.5451C9.11548 9.67166 8.53351 8.30227 8.53351 7.31026C8.53828 6.89127 8.63274 6.47753 8.8112 6.09394C8.98966 5.71035 9.24843 5.36486 9.57193 5.07826C10.2913 4.39445 11.2674 4.0069 12.2878 4C14.2049 4 15.1748 5.69287 15.8938 6.90053C16.3609 7.89052 16.7426 8.91462 17.0349 9.96279C17.0702 10.0817 17.0763 10.2068 17.0525 10.3282C17.0288 10.4497 16.9759 10.5645 16.8979 10.6637C16.8224 10.7638 16.7233 10.8461 16.6085 10.9041C16.4937 10.9621 16.3662 10.9942 16.2361 10.9979H15.8709ZM12.1623 5.60661C11.6204 5.62867 11.1088 5.84908 10.7359 6.22122C10.5732 6.35676 10.4417 6.52237 10.3495 6.70783C10.2572 6.89329 10.2062 7.09466 10.1995 7.29948C10.1995 7.95722 11.044 8.5934 12.4818 9.03548C13.3208 9.2404 14.1828 9.34901 15.0493 9.35896C14.8648 8.78474 14.6398 8.22279 14.3761 7.67687L15.0493 7.2887L14.3076 7.67687C13.6457 6.48 13.0752 5.62818 12.1965 5.60661H12.1623Z" fill="#999999"/>
<path d="M26.6667 14.3636V13C26.6667 12.2044 26.3326 11.4413 25.7379 10.8787C25.1432 10.3161 24.3366 10 23.4955 10H8.5047C7.66366 10 6.85707 10.3161 6.26236 10.8787C5.66766 11.4413 5.33356 12.2044 5.33356 13V14.3636H26.6667ZM16.865 16V28H23.4955C24.3366 28 25.1432 27.6839 25.7379 27.1213C26.3326 26.5587 26.6667 25.7956 26.6667 25V16H16.865ZM15.1353 16H5.33356V25C5.33356 25.7956 5.66766 26.5587 6.26236 27.1213C6.85707 27.6839 7.66366 28 8.5047 28H15.1353V16Z" fill="#999999"/>
</g></symbol><symbol id="run" viewBox="0 0 24 24">
<path fill-rule="evenodd" clip-rule="evenodd" d="M14.1941 6.7496C15.2296 6.7496 16.0689 5.91023 16.0689 4.8748C16.0689 3.83938 15.2296 3 14.1941 3C13.1587 3 12.3193 3.83938 12.3193 4.8748C12.3193 5.91023 13.1587 6.7496 14.1941 6.7496ZM10.5079 8.6244C10.0165 8.6244 9.54607 8.82125 9.20106 9.16926L9.20454 9.17278L8.39951 9.9848C7.96389 10.4242 7.25643 10.4242 6.82081 9.9848C6.38518 9.54539 6.38518 8.8318 6.82081 8.39239L7.62933 7.58037C8.39254 6.80701 9.43107 6.37463 10.5114 6.37463C10.9192 6.37463 11.3234 6.43791 11.7103 6.55743L13.4075 7.08471C14.676 7.47842 15.7041 8.42051 16.2129 9.65437L16.4324 10.1817C16.6032 10.6 17.0109 10.8742 17.4605 10.8742H18.2028C18.8197 10.8742 19.318 11.3768 19.318 11.999C19.318 12.6212 18.8197 13.1239 18.2028 13.1239H17.4605C16.1083 13.1239 14.8921 12.3049 14.3693 11.0464L14.1916 10.614L13.1147 13.5106L15.0942 14.7585C15.725 15.1557 16.0212 15.9291 15.8156 16.6532L14.8154 20.1826C14.6446 20.7801 14.0278 21.1282 13.4353 20.9559C12.8429 20.7837 12.4979 20.1615 12.6686 19.5639L13.5538 16.4423L10.5498 14.5476C9.67502 13.9957 9.29167 12.913 9.61577 11.9287L10.7031 8.63494C10.6404 8.62791 10.5741 8.6244 10.5079 8.6244ZM6.1152 16.2065L8.03705 15.978L9.18211 13.5106C9.44678 14.1638 9.90898 14.7161 10.5029 15.0889L10.834 15.2999L10.2919 16.5478C10.0235 17.1559 9.38578 17.9623 8.72363 17.9623L6.1152 18.1908C5.49836 18.1908 5 17.6881 5 17.0659C5 16.4437 5.49836 16.2065 6.1152 16.2065Z"/>
</symbol><symbol id="search" viewBox="0 0 24 24"><g fill="none">
<path d="M16.0345 16.0345L21 21M10.3913 17.7827C6.30922 17.7827 3 14.4734 3 10.3913C3 6.30922 6.30922 3 10.3913 3C14.4734 3 17.7827 6.30922 17.7827 10.3913C17.7827 14.4734 14.4734 17.7827 10.3913 17.7827Z" stroke="#2E2E2E" stroke-width="1.5" stroke-linecap="round"/>
</g></symbol><symbol id="show-password" viewBox="0 0 20 20"><g fill="none">
<path d="M0.833252 9.99992C0.833252 9.99992 4.16659 3.33325 9.99992 3.33325C15.8333 3.33325 19.1666 9.99992 19.1666 9.99992C19.1666 9.99992 15.8333 16.6666 9.99992 16.6666C4.16659 16.6666 0.833252 9.99992 0.833252 9.99992Z" stroke-width="1.5" stroke-linecap="round" stroke-linejoin="round"/>
<path d="M10 12.5C11.3807 12.5 12.5 11.3807 12.5 10C12.5 8.61929 11.3807 7.5 10 7.5C8.61929 7.5 7.5 8.61929 7.5 10C7.5 11.3807 8.61929 12.5 10 12.5Z" stroke-width="1.5" stroke-linecap="round" stroke-linejoin="round"/>
</g></symbol><symbol id="size" viewBox="0 0 16 16"><g fill="none">
<path d="M2.84201 7.79381C2.89576 7.84987 2.95967 7.89426 3.03003 7.9244C3.10038 7.95454 3.17579 7.96983 3.25186 7.96938C3.32793 7.96893 3.40316 7.95274 3.47319 7.92177C3.54321 7.8908 3.60662 7.84565 3.65976 7.78895L3.8989 7.53382V12.8325C3.8989 13.4776 4.40051 14 5.02053 14H10.9839C11.6033 14 12.1055 13.4776 12.1055 12.8325V7.53443L12.3505 7.78955C12.4555 7.89889 12.6071 7.96571 12.7588 7.96571C12.9163 7.96571 13.0621 7.89889 13.1729 7.78955L14.8294 6.05775C15.0569 5.82085 15.0569 5.43209 14.8294 5.19519L11.9364 2.17622C11.8255 2.06688 11.6797 2.00006 11.5222 2.00006H10.2781C10.1965 1.99851 10.1167 2.02531 10.0513 2.07624C9.98594 2.12717 9.93872 2.19932 9.91709 2.28131C9.80979 2.72651 9.56286 3.12167 9.21545 3.40413C8.86805 3.6866 8.44004 3.84021 7.99929 3.8406C7.55947 3.83917 7.13266 3.68506 6.78637 3.40265C6.44009 3.12024 6.19411 2.72565 6.08733 2.28131C6.0655 2.19949 6.0182 2.12753 5.95286 2.07674C5.88751 2.02594 5.80782 1.99919 5.72629 2.00067H4.48217C4.32903 2.00068 4.18216 2.06405 4.07388 2.17683L1.17502 5.19579C1.11964 5.25184 1.07562 5.31889 1.04555 5.39297C1.01549 5.46705 1 5.54665 1 5.62708C1 5.7075 1.01549 5.78711 1.04555 5.86118C1.07562 5.93526 1.11964 6.00231 1.17502 6.05836L2.84201 7.79381Z" fill="#999999"/>
</g></symbol><symbol id="skis" viewBox="0 0 24 24">
<path d="M16.5398 7.8631C17.1933 7.20443 17.1896 6.14108 16.531 5.48799C15.8732 4.83391 14.8097 4.838 14.1561 5.49636C13.5028 6.15428 13.5068 7.21762 14.1647 7.8709C14.8228 8.52452 15.8861 8.52085 16.5398 7.8631ZM12.9411 11.3996C13.0281 12.0607 13.275 12.5941 13.9486 12.5505L17.0481 12.3483L17.0498 12.3481C17.5529 12.3148 17.9297 11.8815 17.897 11.3824C17.8642 10.8826 17.4332 10.5033 16.9331 10.5353L16.9314 10.5351L15.3514 10.6383L14.6492 10.4551C14.5312 9.55546 14.5729 9.87482 14.4681 9.07483C14.413 8.65344 13.9374 8.25481 13.6359 7.95516C13.0687 7.39246 12.1533 7.39564 11.5908 7.96237L10.804 8.75488L12.6648 9.24114C12.6716 9.37302 12.7331 9.81619 12.7521 9.95919L4.5346 7.81305C4.17566 7.71819 3.80769 7.93389 3.71365 8.29393C3.61963 8.65328 3.83494 9.02105 4.19453 9.11491L12.9411 11.3996Z"/>
<path d="M20.7604 17.0562C20.4768 16.8168 20.0532 16.8532 19.8123 17.1377L19.1168 17.9634L12.6349 17.9644L14.5748 14.7214C14.9437 14.1055 14.6373 13.3022 13.9482 13.0903L12.0354 12.5024L12.5444 11.9914L8.61926 10.9595C8.17641 11.4042 8.00747 12.0167 8.10599 12.5915C8.22702 13.3012 8.70905 13.7888 9.50885 14.0489L11.9421 14.7967L10.0705 17.9647L3.67294 17.9655C3.30023 17.9649 2.99957 18.2664 3 18.6381C2.99983 19.01 3.30122 19.3111 3.67278 19.3114L19.4296 19.3092C19.5277 19.3093 19.6247 19.2879 19.7136 19.2466C19.8026 19.2052 19.8814 19.1448 19.9446 19.0697L20.8419 18.0042C21.0812 17.7203 21.0448 17.2957 20.7604 17.0562Z"/>
</symbol><symbol id="star" viewBox="0 0 32 32"><g fill="none">
<path d="M4.16658 13.6986C4.0903 13.6212 4.03734 13.5239 4.01378 13.4177C3.99021 13.3116 3.99698 13.201 4.03332 13.0986C4.06289 13.0021 4.119 12.9159 4.19523 12.8498C4.27146 12.7837 4.36473 12.7404 4.4644 12.7248L11.39 11.6709C11.6154 11.6338 11.8282 11.5421 12.0099 11.4038C12.1916 11.2655 12.3368 11.0848 12.4326 10.8775L15.5179 4.31683C15.5587 4.22269 15.6261 4.14252 15.7118 4.0862C15.7975 4.02988 15.8979 3.99988 16.0004 3.99988C16.103 3.99988 16.2033 4.02988 16.2891 4.0862C16.3748 4.14252 16.4422 4.22269 16.4829 4.31683L19.5682 10.8745C19.6643 11.0828 19.81 11.2643 19.9925 11.4031C20.175 11.542 20.3888 11.6339 20.6151 11.6709L27.5356 12.7253C27.6353 12.7408 27.7285 12.7841 27.8048 12.8502C27.881 12.9163 27.9371 13.0025 27.9667 13.099C28.003 13.2014 28.0098 13.3121 27.9862 13.4182C27.9627 13.5243 27.9097 13.6216 27.8334 13.699L24.9482 16.6491C21.6557 15.6609 18.2377 15.1535 14.8002 15.1426C10.9898 15.1426 8.522 15.8408 6.91979 16.5167L4.16658 13.6986Z" fill="#999999"/>
<path d="M5.61494 18.1223C6.85206 17.4335 9.427 15.9998 14.8001 15.9998C20.3357 15.9998 25.2687 17.4999 26.3927 18.127C26.4816 18.1776 26.5493 18.2585 26.5833 18.355C26.6173 18.4514 26.6154 18.5569 26.5778 18.652L25.6861 21.0325C22.1576 19.9584 18.4884 19.4178 14.8001 19.4287C9.83709 19.4287 7.26215 20.4368 6.28 20.9442L5.42297 18.652C5.38556 18.5554 5.38439 18.4486 5.41969 18.3512C5.45498 18.2538 5.52434 18.1725 5.61494 18.1223ZM23.4857 21.3184C23.9262 21.4243 24.3647 21.5386 24.8008 21.6613L23.6378 22.2429L23.4857 21.3184ZM8.36043 22.2442L6.98919 21.5584C7.49901 21.3364 8.02468 21.1527 8.56183 21.009L8.36043 22.2442ZM5.62994 24.2291V22.8575C5.62992 22.7719 5.60428 22.6883 5.55632 22.6174C5.50835 22.5465 5.44027 22.4916 5.36083 22.4598L4.00159 21.918L5.4024 21.0437L5.65651 21.7222C5.69718 21.8209 5.77374 21.9005 5.87077 21.945L5.86562 21.9553L7.75408 22.8983L5.62994 24.2291Z" fill="#999999"/>
<path d="M23.3704 27.9035C23.2928 27.9604 23.2004 27.9936 23.1044 27.9991C23.0083 28.0045 22.9127 27.9821 22.8292 27.9344L16.6594 24.5291C16.4571 24.4179 16.23 24.3596 15.9991 24.3596C15.7682 24.3596 15.5411 24.4179 15.3388 24.5291L9.17201 27.9344C9.08843 27.982 8.99287 28.0044 8.89685 27.9989C8.80083 27.9934 8.70843 27.9603 8.6308 27.9035C8.54082 27.8402 8.47093 27.7524 8.42945 27.6505C8.38796 27.5486 8.37664 27.4369 8.39683 27.3287L9.46812 20.7869C11.2229 20.4332 13.0101 20.2653 14.8001 20.2859C17.4162 20.2914 20.0245 20.569 22.5832 21.1139L23.6022 27.3287C23.6225 27.4367 23.6115 27.5482 23.5704 27.6501C23.5293 27.7519 23.4599 27.8399 23.3704 27.9035ZM26.6391 22.4598C26.5597 22.4916 26.4916 22.5465 26.4436 22.6174C26.3957 22.6883 26.37 22.7719 26.37 22.8575V24.2256L24.2463 22.9004L26.1339 21.9574L26.1317 21.9527C26.2299 21.907 26.3066 21.8252 26.346 21.7243L26.6001 21.0454L27.9983 21.9146L26.6391 22.4598Z" fill="#999999"/>
</g></symbol><symbol id="swimming" viewBox="0 0 24 24">
<path d="M20.9617 16.6462C20.8414 16.3454 20.5407 16.165 20.1798 16.2853L18.6159 16.8266C16.992 17.3679 15.1875 17.1875 13.6838 16.4657L13.8041 16.3454C14.8266 15.3229 14.8266 13.6388 13.8041 12.6163L9.29305 8.10518C8.51113 7.20296 7.06758 7.20296 6.22551 8.04503L3.57901 10.6915C3.39857 10.872 3.27827 11.1126 3.27827 11.4133C3.27827 11.714 3.39857 11.9546 3.57901 12.1351C3.9399 12.496 4.48123 12.5561 4.84211 12.2554L7.78935 10.3306L9.47349 12.0148L7.90965 13.5786C6.94728 13.5185 5.92477 13.6388 4.96241 13.9395L3.39857 14.4808C3.09783 14.6011 2.91738 14.9019 3.03768 15.2628C3.15798 15.5635 3.45871 15.7439 3.8196 15.6236L5.38344 15.0823C7.54876 14.3605 9.95467 14.8417 11.6388 16.4056C13.0222 17.6687 14.8266 18.3303 16.6912 18.3303C17.4731 18.3303 18.3152 18.21 19.0971 17.9694L20.661 17.4281C20.9016 17.3078 21.082 16.9469 20.9617 16.6462Z"/>
<path d="M16.2095 12.0148C17.8937 12.0148 19.2169 10.6915 19.2169 9.00739C19.2169 7.32325 17.8937 6 16.2095 6C14.5254 6 13.2021 7.32325 13.2021 9.00739C13.2021 10.6915 14.5254 12.0148 16.2095 12.0148Z"/>
</symbol><symbol id="tickets" viewBox="0 0 32 32"><g fill="none">
<path d="M19.1395 12.7162C26.948 12.7162 26.3711 12.7145 26.4913 12.7192C26.4187 12.4407 26.273 12.1867 26.0693 11.9834L23.9285 9.84253C23.4659 9.37988 22.7557 9.24538 22.161 9.50803C21.8417 9.64911 21.4612 9.57791 21.2142 9.33094C20.9673 9.08401 20.8961 8.70353 21.0371 8.38423C21.2998 7.78971 21.1653 7.07938 20.7026 6.61669L18.5618 4.47587C17.9273 3.8414 16.8949 3.84135 16.2603 4.47587L13.5819 7.15426L19.1395 12.7162ZM12.5836 8.15259L8.02004 12.7162H17.1429C17.1263 12.6996 16.7772 12.3501 12.5836 8.15259ZM26.9871 20.2693C27.5932 20.0347 28.0004 19.4373 28.0004 18.783V15.7554C28.0004 14.8581 27.2703 14.128 26.3729 14.128H23.0591V28H26.3729C27.2703 28 28.0004 27.2699 28.0004 26.3726V23.345C28.0004 22.6907 27.5932 22.0934 26.9871 21.8587C26.6616 21.7325 26.4428 21.4132 26.4428 21.064C26.4428 20.7147 26.6616 20.3954 26.9871 20.2693ZM3.99963 15.7554V18.783C3.99963 19.4373 4.40685 20.0347 5.01289 20.2693C5.33845 20.3954 5.55714 20.7147 5.55714 21.064C5.55714 21.4132 5.33841 21.7325 5.01284 21.8587C4.4068 22.0934 3.99963 22.6907 3.99963 23.345V26.3726C3.99963 27.2699 4.72973 28 5.62707 28H21.6472V14.128H5.62707C4.72973 14.128 3.99963 14.858 3.99963 15.7554ZM8.94096 17.4114H19.5295V18.8232H8.94096V17.4114ZM8.94096 20.235H19.5295V21.6469H8.94096V20.235ZM8.94096 23.0587H19.5295V24.4705H8.94096V23.0587Z" fill="#999999"/>
</g></symbol><symbol id="triathlon" viewBox="0 0 24 24">
<path d="M23.8529 8.76539C23.7765 8.57427 23.5853 8.45961 23.356 8.53605L22.3622 8.88005C21.3302 9.22406 20.1835 9.10939 19.228 8.65072L19.3044 8.57427C19.9542 7.92449 19.9542 6.85426 19.3044 6.20447L16.4377 3.33778C15.9408 2.76445 15.0235 2.76445 14.4884 3.29956L12.8066 4.98135C12.6919 5.09602 12.6155 5.24891 12.6155 5.44002C12.6155 5.63114 12.6919 5.78403 12.8066 5.8987C13.0359 6.12803 13.3799 6.16625 13.6093 5.97514L15.4822 4.75202L16.5524 5.82225L15.5586 6.81604C14.9471 6.77781 14.2973 6.85426 13.6857 7.04537L12.6919 7.38937C12.5008 7.46582 12.3861 7.65693 12.4626 7.88627C12.539 8.07738 12.7301 8.19205 12.9595 8.1156L13.9533 7.7716C15.3293 7.31293 16.8582 7.61871 17.9284 8.61249C18.8075 9.41517 19.9542 9.83562 21.1391 9.83562C21.636 9.83562 22.1711 9.75917 22.668 9.60628L23.6618 9.26228C23.8147 9.18583 23.9293 8.9565 23.8529 8.76539Z"/>
<path d="M20.8336 5.82225C21.9038 5.82225 22.7447 4.98136 22.7447 3.91113C22.7447 2.8409 21.9038 2 20.8336 2C19.7634 2 18.9225 2.8409 18.9225 3.91113C18.9225 4.98136 19.7634 5.82225 20.8336 5.82225Z"/>
<path d="M11.8946 20.9723C11.6239 21.1805 11.2894 21.3093 10.9222 21.3093C10.0375 21.3093 9.31763 20.5894 9.31763 19.7047C9.31763 18.8198 10.0375 18.0999 10.9222 18.0999C11.5899 18.0999 12.1626 18.5105 12.4041 19.0918L12.9065 18.5707C12.5108 17.8801 11.7752 17.4093 10.9222 17.4093C9.65439 17.4093 8.62695 18.4369 8.62695 19.7047C8.62695 20.9723 9.65439 22 10.9222 22C11.5187 22 12.0569 21.7669 12.4652 21.3936C12.3085 21.3411 12.1599 21.2576 12.0329 21.1353C11.9805 21.0847 11.9353 21.0294 11.8946 20.9723Z"/>
<path d="M15.3795 17.4268L14.1641 16.7209C14.7061 16.3816 14.5051 16.5072 15.0472 16.168L15.0301 16.3407C15.0009 16.6345 15.2174 16.9035 15.4901 16.9587C15.4966 16.96 17.6237 17.3216 17.7013 17.3216C17.9776 17.3216 18.2216 17.1219 18.2683 16.8402C18.3204 16.5266 18.1084 16.2302 17.7948 16.1783L16.2289 15.9182L16.3033 15.1709C16.3784 14.6934 16.411 14.5436 16.2327 14.2587L16.0085 13.9004C15.7189 13.4379 15.1083 13.2965 14.6447 13.5867L12.1914 15.1227C11.5889 15.5 11.295 16.2955 11.7869 16.8807C11.9791 17.1093 13.8477 18.2576 13.8477 18.2576L12.3344 19.8273C12.0695 20.1018 12.0774 20.5391 12.3521 20.8037C12.4807 20.9281 12.6526 20.9975 12.8314 20.9973C13.0125 20.9973 13.1932 20.9267 13.3286 20.7859L15.5296 18.5033C15.8402 18.182 15.7673 17.6521 15.3795 17.4268ZM17.9578 14.2913C18.4959 13.9543 18.6589 13.2452 18.322 12.7074C17.9853 12.1692 17.2761 12.0062 16.7382 12.343C16.2003 12.6798 16.0373 13.3886 16.3739 13.9264C16.7107 14.4647 17.4198 14.6279 17.9578 14.2913Z"/>
<path d="M17.7712 17.4093C16.4901 17.4093 15.4759 18.4662 15.4759 19.7047C15.4759 20.9723 16.5034 22 17.7712 22C19.0388 22 20.0665 20.9723 20.0665 19.7047C20.0665 18.4369 19.0388 17.4093 17.7712 17.4093ZM17.7712 21.3093C16.8865 21.3093 16.1666 20.5894 16.1666 19.7047C16.1666 18.8198 16.8865 18.0999 17.7712 18.0999C18.6559 18.0999 19.3758 18.8198 19.3758 19.7047C19.3758 20.5894 18.6559 21.3093 17.7712 21.3093Z"/>
<path d="M8.03448 5.09783C8.03448 5.75582 7.50108 6.28922 6.84309 6.28922C6.1851 6.28922 5.65169 5.75582 5.65169 5.09783C5.65169 4.43984 6.1851 3.90643 6.84309 3.90643C7.50108 3.90643 8.03448 4.43984 8.03448 5.09783Z"/>
<path d="M3.66968 7.82686C3.88893 7.60571 4.1879 7.48061 4.50017 7.48061C4.54225 7.48061 4.58433 7.48284 4.62419 7.48731L3.93322 9.58044C3.72726 10.2059 3.97087 10.894 4.52674 11.2447L6.43576 12.4487L5.87325 14.4324C5.76473 14.8122 5.98398 15.2075 6.36047 15.317C6.73695 15.4265 7.12895 15.2053 7.23746 14.8256L7.87306 12.5828C8.00373 12.1226 7.81548 11.6311 7.41463 11.3787L6.15672 10.5857L6.84104 8.74498L6.95399 9.01974C7.28619 9.81947 8.05909 10.34 8.91838 10.34H9.39009C9.78209 10.34 10.0988 10.0205 10.0988 9.62512C10.0988 9.22973 9.78209 8.91028 9.39009 8.91028H8.91838C8.63269 8.91028 8.37357 8.73604 8.26506 8.47021L8.12553 8.13513C7.8022 7.35105 7.14888 6.75237 6.34275 6.50218L5.26422 6.1671C5.01839 6.09115 4.7615 6.05094 4.50238 6.05094C3.81585 6.05094 3.15588 6.3257 2.67088 6.81715L2.15708 7.33317C1.88025 7.61241 1.88025 8.06588 2.15708 8.34512C2.43391 8.62435 2.88348 8.62435 3.16031 8.34512L3.67189 7.82909L3.66968 7.82686ZM2.92998 12.1536L1.70868 12.2988C1.31669 12.2988 1 12.4496 1 12.845C1 13.2404 1.31669 13.5598 1.70868 13.5598L3.36628 13.4146C3.78706 13.4146 4.19233 12.9022 4.36286 12.5157L4.70738 11.7227L4.49699 11.5887C4.11955 11.3518 3.82583 11.0008 3.65764 10.5857L2.92998 12.1536Z"/>
</symbol><symbol id="vk" viewBox="0 0 32 32"><g fill="none">
<g clip-path="url(#clip0_2163_6689)">
<path d="M3.66667 6H29V26.6667H3.66667V6Z" fill="white"/>
<path fill-rule="evenodd" clip-rule="evenodd" d="M2.24667 2.24667C0 4.5 0 8.11333 0 15.36V16.64C0 23.88 0 27.5067 2.24667 29.7533C4.5 32 8.11333 32 15.36 32H16.64C23.88 32 27.5067 32 29.7533 29.7533C32 27.5 32 23.8867 32 16.64V15.36C32 8.12 32 4.49333 29.7533 2.24667C27.5 0 23.8867 0 16.64 0H15.36C8.12 0 4.49333 0 2.24667 2.24667ZM5.40667 9.78C5.57333 18.1 9.95333 23.1133 17.1733 23.1133H17.5933V18.3467C20.2267 18.6133 22.1867 20.58 22.9867 23.1133H26.78C26.4058 21.686 25.7359 20.3532 24.8137 19.2013C23.8915 18.0494 22.7376 17.1041 21.4267 16.4267C23.08 15.4333 25.4267 13.0333 25.98 9.78H22.5267C21.8067 12.4267 19.6533 14.8267 17.5933 15.0533V9.78H14.0867V19.0133C11.9533 18.48 9.17333 15.8933 9.06 9.78H5.40667Z" fill="#0077FF"/>
</g>

</g></symbol><symbol id="yandex" viewBox="0 0 32 32"><g fill="none">
<g clip-path="url(#clip0_2163_7972)">
<path d="M16 31.2727C18.0057 31.2727 19.9917 30.8777 21.8446 30.1102C23.6976 29.3426 25.3813 28.2176 26.7995 26.7994C28.2177 25.3812 29.3427 23.6976 30.1102 21.8446C30.8777 19.9916 31.2728 18.0056 31.2728 16C31.2728 13.9943 30.8777 12.0083 30.1102 10.1554C29.3427 8.3024 28.2177 6.61875 26.7995 5.20054C25.3813 3.78234 23.6976 2.65736 21.8446 1.88983C19.9917 1.12231 18.0057 0.727264 16 0.727264C11.9494 0.727264 8.06476 2.33635 5.20057 5.20054C2.33638 8.06473 0.727295 11.9494 0.727295 16C0.727295 20.0506 2.33638 23.9352 5.20057 26.7994C8.06476 29.6636 11.9494 31.2727 16 31.2727Z" fill="#F8604A"/>
<path d="M18.4 25.5491H21.7236V6.44363H16.88C12.0072 6.44363 9.44725 8.94545 9.44725 12.6255C9.44725 15.5491 10.8509 17.3018 13.3527 19.0836L8.99634 25.5418H12.6109L17.4545 18.3127L15.7672 17.1927C13.7309 15.8109 12.7345 14.7491 12.7345 12.4364C12.7345 10.4073 14.1672 9.03273 16.8945 9.03273H18.3854V25.5418H18.3927L18.4 25.5491Z" fill="white"/>
</g>

</g></symbol></svg>