<svg xmlns="http://www.w3.org/2000/svg" xmlns:xlink="http://www.w3.org/1999/xlink"><symbol id="another" viewBox="0 0 24 24"><g fill="none">
<path d="M10.4415 6.27426L9.0858 3.00151H14.1303L12.7746 6.27426H10.4415ZM11.589 11.1826L8.30402 3.25229C8.26231 3.15216 8.18262 3.07265 8.0824 3.03116C7.98218 2.98968 7.8696 2.98961 7.76933 3.03097C7.42136 3.1739 7.10521 3.38448 6.8392 3.65048C6.5732 3.91649 6.36262 4.23264 6.21968 4.58061C6.07467 4.9278 6 5.30032 6 5.67657C6 6.05283 6.07467 6.42535 6.21968 6.77254L8.47338 12.2131C9.37629 11.5477 10.4675 11.1868 11.589 11.1826ZM16.996 4.58061C16.8531 4.23264 16.6425 3.91649 16.3765 3.65048C16.1105 3.38448 15.7944 3.1739 15.4464 3.03097C15.3461 2.98961 15.2335 2.98968 15.1333 3.03116C15.0331 3.07265 14.9534 3.15216 14.9117 3.25229L11.6267 11.1826C12.7918 11.1867 13.8669 11.5712 14.7419 12.2131L16.9956 6.77254C17.1408 6.4254 17.2156 6.05289 17.2156 5.67662C17.2157 5.30035 17.1411 4.92781 16.996 4.58061ZM11.6079 13.6363C10.0292 13.6363 8.7442 14.9213 8.7442 16.5C8.7442 18.0787 10.0292 19.3636 11.6079 19.3636C13.1866 19.3636 14.4715 18.0787 14.4715 16.5C14.4715 14.9213 13.187 13.6363 11.6079 13.6363ZM16.1079 16.5C16.1079 18.9852 14.0931 21 11.6079 21C9.12261 21 7.10783 18.9852 7.10783 16.5C7.10783 14.0147 9.12261 11.9999 11.6079 11.9999C14.0931 11.9999 16.1079 14.0147 16.1079 16.5ZM15.2897 16.5C15.2897 14.4696 13.6382 12.8181 11.6079 12.8181C9.57753 12.8181 7.92601 14.4696 7.92601 16.5C7.92601 18.5303 9.57753 20.1818 11.6079 20.1818C13.6382 20.1818 15.2897 18.5303 15.2897 16.5Z" fill="#999999"/>
</g></symbol><symbol id="arrow" viewBox="0 0 10 5"><g fill="none">
<path d="M1 0.5L5 4.5L9 0.5" stroke="#999999" stroke-linecap="round" stroke-linejoin="round"/>
</g></symbol><symbol id="map" viewBox="0 0 16 16"><g fill="none">
<path fill-rule="evenodd" clip-rule="evenodd" d="M13.5866 5.66668C12.28 -0.106655 3.72664 -0.113322 2.4133 5.66001C1.64664 9.04668 3.7533 11.92 5.5933 13.6933C6.93997 14.9867 9.05997 14.9867 10.4 13.6933C12.2466 11.92 14.3533 9.05334 13.5866 5.66668ZM10.08 6.87334C10.08 8.0221 9.14872 8.95334 7.99997 8.95334C6.85122 8.95334 5.91997 8.0221 5.91997 6.87334C5.91997 5.72459 6.85122 4.79334 7.99997 4.79334C9.14872 4.79334 10.08 5.72459 10.08 6.87334Z" fill="#999999"/>
</g></symbol><symbol id="swimming" viewBox="0 0 24 24"><g fill="none">
<path d="M20.9617 16.6462C20.8414 16.3454 20.5407 16.165 20.1798 16.2853L18.6159 16.8266C16.992 17.3679 15.1875 17.1875 13.6838 16.4657L13.8041 16.3454C14.8266 15.3229 14.8266 13.6388 13.8041 12.6163L9.29305 8.10518C8.51113 7.20296 7.06758 7.20296 6.22551 8.04503L3.57901 10.6915C3.39857 10.872 3.27827 11.1126 3.27827 11.4133C3.27827 11.714 3.39857 11.9546 3.57901 12.1351C3.9399 12.496 4.48123 12.5561 4.84211 12.2554L7.78935 10.3306L9.47349 12.0148L7.90965 13.5786C6.94728 13.5185 5.92477 13.6388 4.96241 13.9395L3.39857 14.4808C3.09783 14.6011 2.91738 14.9019 3.03768 15.2628C3.15798 15.5635 3.45871 15.7439 3.8196 15.6236L5.38344 15.0823C7.54876 14.3605 9.95467 14.8417 11.6388 16.4056C13.0222 17.6687 14.8266 18.3303 16.6912 18.3303C17.4731 18.3303 18.3152 18.21 19.0971 17.9694L20.661 17.4281C20.9016 17.3078 21.082 16.9469 20.9617 16.6462Z" fill="#999999"/>
<path d="M16.2095 12.0148C17.8937 12.0148 19.2169 10.6915 19.2169 9.00739C19.2169 7.32325 17.8937 6 16.2095 6C14.5254 6 13.2021 7.32325 13.2021 9.00739C13.2021 10.6915 14.5254 12.0148 16.2095 12.0148Z" fill="#999999"/>
</g></symbol></svg>