<svg width="63" height="31" viewBox="0 0 63 31" fill="none" xmlns="http://www.w3.org/2000/svg">
<path d="M20.222 9.89015V20.3483C20.222 26.1815 15.4244 30.9286 9.52773 30.9286H4.60171C3.63982 30.9286 2.86091 30.1567 2.86091 29.2051C2.86091 28.2547 3.63982 27.4828 4.60171 27.4828H9.52773C13.5044 27.4828 16.7397 24.282 16.7397 20.3483V9.89015C16.7397 8.93913 17.5199 8.16852 18.4812 8.16852C19.443 8.16852 20.222 8.93913 20.222 9.89015ZM0.125 11.2696C0.125 5.44874 4.91127 0.712851 10.7948 0.712851H34.0206C34.9818 0.712851 35.7614 1.48408 35.7614 2.43449C35.7614 3.38613 34.9818 4.15736 34.0206 4.15736H10.7948C6.8313 4.15736 3.60724 7.34769 3.60724 11.2683C3.60724 15.189 6.8313 18.3787 10.7948 18.3787C10.8261 18.3787 11.627 18.3805 11.6577 18.3812C12.5757 18.4295 13.3045 19.1821 13.3045 20.1022C13.3045 21.0247 12.5713 21.7779 11.6489 21.8226C11.6207 21.8244 10.823 21.825 10.7948 21.825C4.91127 21.825 0.125 17.0892 0.125 11.2696Z" fill="#2E2E2E"/>
<path d="M34.2447 10.2393V19.9585C34.2447 20.9095 33.4658 21.6807 32.5045 21.6807C31.542 21.6807 30.7625 20.9095 30.7625 19.9585V10.2393C30.7625 9.28829 31.542 8.51768 32.5045 8.51768C33.4658 8.51768 34.2447 9.28891 34.2447 10.2393Z" fill="#2E2E2E"/>
<path d="M62.2953 11.3981V19.9586C62.2953 20.9102 61.5164 21.6808 60.5545 21.6808C59.5926 21.6808 58.8137 20.9102 58.8137 19.9586V11.3981C58.8137 7.40621 55.5307 4.1576 51.4952 4.1576H50.2895C49.3283 4.1576 48.5481 3.38699 48.5481 2.43535C48.5481 1.48371 49.3283 0.713093 50.2895 0.713093H51.4952C57.4501 0.713093 62.2953 5.50602 62.2953 11.3981Z" fill="#2E2E2E"/>
<path d="M48.2453 11.3981V19.9586C48.2453 20.9102 47.4658 21.6808 46.5039 21.6808C45.542 21.6808 44.7631 20.9102 44.7631 19.9586V11.3981C44.7631 7.40621 41.4801 4.1576 37.4452 4.1576H31.447C30.4845 4.1576 29.7056 3.38699 29.7056 2.43535C29.7056 1.48371 30.4845 0.713093 31.447 0.713093H37.4452C43.4001 0.713093 48.2453 5.50602 48.2453 11.3981Z" fill="#2E2E2E"/>
</svg>
