<svg xmlns="http://www.w3.org/2000/svg" width="24" height="24" viewBox="0 0 24 24" >
  <path d="M10.4415 6.27426L9.0858 3.00151H14.1303L12.7746 6.27426H10.4415ZM11.589 11.1826L8.30402 3.25229C8.26231 3.15216 8.18262 3.07265 8.0824 3.03116C7.98218 2.98968 7.8696 2.98961 7.76933 3.03097C7.42136 3.1739 7.10521 3.38448 6.8392 3.65048C6.5732 3.91649 6.36262 4.23264 6.21968 4.58061C6.07467 4.9278 6 5.30032 6 5.67657C6 6.05283 6.07467 6.42535 6.21968 6.77254L8.47338 12.2131C9.37629 11.5477 10.4675 11.1868 11.589 11.1826ZM16.996 4.58061C16.8531 4.23264 16.6425 3.91649 16.3765 3.65048C16.1105 3.38448 15.7944 3.1739 15.4464 3.03097C15.3461 2.98961 15.2335 2.98968 15.1333 3.03116C15.0331 3.07265 14.9534 3.15216 14.9117 3.25229L11.6267 11.1826C12.7918 11.1867 13.8669 11.5712 14.7419 12.2131L16.9956 6.77254C17.1408 6.4254 17.2156 6.05289 17.2156 5.67662C17.2157 5.30035 17.1411 4.92781 16.996 4.58061ZM11.6079 13.6363C10.0292 13.6363 8.7442 14.9213 8.7442 16.5C8.7442 18.0787 10.0292 19.3636 11.6079 19.3636C13.1866 19.3636 14.4715 18.0787 14.4715 16.5C14.4715 14.9213 13.187 13.6363 11.6079 13.6363ZM16.1079 16.5C16.1079 18.9852 14.0931 21 11.6079 21C9.12261 21 7.10783 18.9852 7.10783 16.5C7.10783 14.0147 9.12261 11.9999 11.6079 11.9999C14.0931 11.9999 16.1079 14.0147 16.1079 16.5ZM15.2897 16.5C15.2897 14.4696 13.6382 12.8181 11.6079 12.8181C9.57753 12.8181 7.92601 14.4696 7.92601 16.5C7.92601 18.5303 9.57753 20.1818 11.6079 20.1818C13.6382 20.1818 15.2897 18.5303 15.2897 16.5Z"/>
</svg>
