<svg width="24" height="24" viewBox="0 0 24 24" xmlns="http://www.w3.org/2000/svg">
<path fill-rule="evenodd" clip-rule="evenodd" d="M13.6269 12.2759L11.7143 11.165L12.4129 10.7277L13.104 10.295L13.0771 10.5667C13.0311 11.0292 13.3719 11.4523 13.8009 11.5393C13.8112 11.5414 17.1584 12.1103 17.2805 12.1103C17.7153 12.1103 18.0992 11.7962 18.1727 11.3529C18.2548 10.8593 17.9212 10.393 17.4277 10.3113L14.9635 9.90192L15.0807 8.72597L15.094 8.64141C15.2022 7.95605 15.2393 7.72163 14.9695 7.29058L14.6168 6.72665C14.1611 5.99887 13.2002 5.77633 12.4707 6.23308L8.61008 8.65018C7.66189 9.24387 7.19948 10.4956 7.97359 11.4165C8.27601 11.7763 11.2164 13.5832 11.2164 13.5832L8.83501 16.0534C8.41824 16.4853 8.43063 17.1735 8.86296 17.5899C9.06525 17.7856 9.33579 17.8948 9.61724 17.8945C9.90208 17.8945 10.1865 17.7834 10.3995 17.5619L13.8632 13.9699C14.3518 13.4643 14.2372 12.6304 13.6269 12.2759ZM17.6842 7.34187C18.5309 6.81154 18.7874 5.69565 18.2573 4.84937C17.7274 4.00238 16.6115 3.74588 15.7649 4.27588C14.9186 4.80588 14.6621 5.92138 15.1918 6.76765C15.7217 7.61468 16.8376 7.87154 17.6842 7.34187ZM8.14203 17.8553C7.71609 18.1828 7.1896 18.3856 6.6119 18.3856C5.21972 18.3856 4.08686 17.2527 4.08686 15.8605C4.08686 14.468 5.21972 13.3351 6.6119 13.3351C7.66263 13.3351 8.56377 13.9812 8.94372 14.8961L9.73443 14.076C9.11175 12.9892 7.95418 12.2483 6.6119 12.2483C4.61679 12.2483 3 13.8655 3 15.8605C3 17.8553 4.61679 19.4724 6.6119 19.4724C7.55056 19.4724 8.39748 19.1056 9.03995 18.5182C8.79338 18.4355 8.5595 18.3042 8.35965 18.1118C8.27719 18.0321 8.20604 17.9451 8.14203 17.8553ZM13.7764 15.8605C13.7764 13.9115 15.3724 12.2483 17.3883 12.2483C19.3829 12.2483 21.0002 13.8655 21.0002 15.8605C21.0002 17.8553 19.3829 19.4724 17.3883 19.4724C15.3932 19.4724 13.7764 17.8553 13.7764 15.8605ZM14.8632 15.8605C14.8632 17.2527 15.9961 18.3856 17.3883 18.3856C18.7805 18.3856 19.9134 17.2527 19.9133 15.8605C19.9133 14.468 18.7805 13.3351 17.3883 13.3351C15.9961 13.3351 14.8632 14.468 14.8632 15.8605Z"/>
</svg>
