<svg width="16" height="16" viewBox="0 0 16 16" fill="none" xmlns="http://www.w3.org/2000/svg">
<path d="M8.4 1.46668C8.2846 1.38013 8.14425 1.33334 8 1.33334C7.85575 1.33334 7.7154 1.38013 7.6 1.46668C7.32205 1.67921 7.06591 1.91883 6.83533 2.18201C6.48667 2.57468 6 3.23668 6 4.00001C6 4.53044 6.21071 5.03915 6.58579 5.41422C6.96086 5.7893 7.46957 6.00001 8 6.00001H4C3.46957 6.00001 2.96086 6.21072 2.58579 6.5858C2.21071 6.96087 2 7.46958 2 8.00001V9.33334C2 10.1573 2.94067 10.628 3.6 10.1333L4.04467 9.80001C4.16006 9.71346 4.30042 9.66668 4.44467 9.66668C4.58891 9.66668 4.72927 9.71346 4.84467 9.80001L5.022 9.93334C5.36819 10.193 5.78926 10.3333 6.222 10.3333C6.65474 10.3333 7.07581 10.193 7.422 9.93334L7.6 9.80001C7.7154 9.71346 7.85575 9.66668 8 9.66668C8.14425 9.66668 8.2846 9.71346 8.4 9.80001L8.578 9.93334C8.92419 10.193 9.34526 10.3333 9.778 10.3333C10.2107 10.3333 10.6318 10.193 10.978 9.93334L11.1553 9.80001C11.2707 9.71346 11.4111 9.66668 11.5553 9.66668C11.6996 9.66668 11.8399 9.71346 11.9553 9.80001L12.4 10.1333C13.0593 10.628 14 10.1573 14 9.33334V8.00001C14 7.46958 13.7893 6.96087 13.4142 6.5858C13.0391 6.21072 12.5304 6.00001 12 6.00001H8C8.53043 6.00001 9.03914 5.7893 9.41421 5.41422C9.78929 5.03915 10 4.53044 10 4.00001C10 3.23668 9.51333 2.57468 9.16467 2.18201C8.934 1.92201 8.678 1.67534 8.4 1.46668ZM2.66667 11.61V13.3333C2.66667 13.687 2.80714 14.0261 3.05719 14.2762C3.30724 14.5262 3.64638 14.6667 4 14.6667H12C12.3536 14.6667 12.6928 14.5262 12.9428 14.2762C13.1929 14.0261 13.3333 13.687 13.3333 13.3333V11.61C13.1782 11.6662 13.0114 11.6826 12.8484 11.6575C12.6853 11.6325 12.5311 11.5669 12.4 11.4667L11.9553 11.1333C11.8399 11.0468 11.6996 11 11.5553 11C11.4111 11 11.2707 11.0468 11.1553 11.1333L10.978 11.2667C10.6318 11.5263 10.2107 11.6667 9.778 11.6667C9.34526 11.6667 8.92419 11.5263 8.578 11.2667L8.4 11.1333C8.2846 11.0468 8.14425 11 8 11C7.85575 11 7.7154 11.0468 7.6 11.1333L7.422 11.2667C7.07581 11.5263 6.65474 11.6667 6.222 11.6667C5.78926 11.6667 5.36819 11.5263 5.022 11.2667L4.84467 11.1333C4.72927 11.0468 4.58891 11 4.44467 11C4.30042 11 4.16006 11.0468 4.04467 11.1333L3.6 11.4667C3.4689 11.5669 3.31472 11.6325 3.15164 11.6575C2.98855 11.6826 2.82179 11.6662 2.66667 11.61Z" fill="#999999"/>
</svg>
