<svg width="24" height="24" viewBox="0 0 24 24"  xmlns="http://www.w3.org/2000/svg">
<path d="M9.05796 3.36486C9.05796 4.11865 8.44689 4.72972 7.6931 4.72972C6.9393 4.72972 6.32823 4.11865 6.32823 3.36486C6.32823 2.61107 6.9393 2 7.6931 2C8.44689 2 9.05796 2.61107 9.05796 3.36486Z" />
<path d="M4.05838 6.49123C4.30956 6.23788 4.65206 6.09457 5.00979 6.09457C5.058 6.09457 5.1062 6.09713 5.15187 6.10224L4.3603 8.50014C4.12435 9.21669 4.40343 10.0049 5.04024 10.4067L7.22721 11.786L6.58279 14.0585C6.45847 14.4936 6.70965 14.9465 7.14095 15.0719C7.57226 15.1973 8.02132 14.944 8.14564 14.5089L8.87379 11.9396C9.02347 11.4124 8.80782 10.8494 8.34861 10.5602L6.90754 9.65174L7.6915 7.54303L7.82089 7.8578C8.20146 8.77396 9.0869 9.37024 10.0713 9.37024H10.6117C11.0608 9.37024 11.4236 9.00428 11.4236 8.55132C11.4236 8.09836 11.0608 7.7324 10.6117 7.7324H10.0713C9.74401 7.7324 9.44717 7.53279 9.32285 7.22826L9.16302 6.84439C8.7926 5.94614 8.04416 5.2603 7.12066 4.97367L5.88509 4.58981C5.60347 4.5028 5.30917 4.45673 5.01233 4.45673C4.22583 4.45673 3.46978 4.7715 2.91416 5.33451L2.32555 5.92566C2.00842 6.24555 2.00842 6.76506 2.32555 7.08494C2.64269 7.40483 3.15772 7.40483 3.47486 7.08494L4.06092 6.49379L4.05838 6.49123ZM3.21098 11.448L1.81187 11.6143C1.3628 11.6143 1 11.787 1 12.24C1 12.693 1.3628 13.0589 1.81187 13.0589L3.71081 12.8926C4.19286 12.8926 4.65714 12.3055 4.85249 11.8628L5.24717 10.9543L5.00615 10.8008C4.57376 10.5294 4.23727 10.1273 4.04459 9.65174L3.21098 11.448Z"/>
<path d="M13.48 20.8227C13.1699 21.0612 12.7866 21.2088 12.366 21.2088C11.3525 21.2088 10.5278 20.3841 10.5278 19.3705C10.5278 18.3568 11.3525 17.5321 12.366 17.5321C13.131 17.5321 13.787 18.0024 14.0636 18.6684L14.6392 18.0714C14.1859 17.2802 13.3432 16.7408 12.366 16.7408C10.9136 16.7408 9.73655 17.9181 9.73655 19.3705C9.73655 20.8227 10.9136 22 12.366 22C13.0494 22 13.6659 21.7329 14.1337 21.3054C13.9541 21.2451 13.7839 21.1496 13.6384 21.0095C13.5784 20.9515 13.5266 20.8881 13.48 20.8227Z" />
<path d="M17.4731 16.761L16.0807 15.9522C16.7017 15.5636 16.4714 15.7075 17.0924 15.3188L17.0728 15.5167C17.0393 15.8533 17.2874 16.1614 17.5998 16.2247C17.6073 16.2262 20.0441 16.6404 20.1329 16.6404C20.4495 16.6404 20.729 16.4117 20.7825 16.089C20.8423 15.7297 20.5994 15.3902 20.2401 15.3307L18.4461 15.0327L18.5314 14.1766C18.6174 13.6295 18.6548 13.458 18.4505 13.1316L18.1937 12.7211C17.862 12.1913 17.1625 12.0292 16.6314 12.3618L13.8208 14.1214C13.1306 14.5536 12.7939 15.4649 13.3575 16.1353C13.5776 16.3972 15.7182 17.7127 15.7182 17.7127L13.9846 19.511C13.6812 19.8254 13.6902 20.3264 14.0049 20.6296C14.1522 20.772 14.3492 20.8516 14.5541 20.8513C14.7614 20.8513 14.9685 20.7704 15.1236 20.6092L17.6451 17.9942C18.0008 17.6261 17.9174 17.019 17.4731 16.761ZM20.4268 13.169C21.0432 12.7829 21.2299 11.9705 20.8441 11.3544C20.4583 10.7378 19.6459 10.5511 19.0296 10.9369C18.4135 11.3228 18.2267 12.1348 18.6123 12.7509C18.9981 13.3676 19.8105 13.5546 20.4268 13.169Z" />
<path d="M20.2111 16.7408C18.7435 16.7408 17.5816 17.9517 17.5816 19.3705C17.5816 20.8227 18.7587 22 20.2111 22C21.6632 22 22.8406 20.8227 22.8406 19.3705C22.8406 17.9181 21.6632 16.7408 20.2111 16.7408ZM20.2111 21.2088C19.1976 21.2088 18.3728 20.3841 18.3728 19.3705C18.3728 18.3568 19.1976 17.5321 20.2111 17.5321C21.2246 17.5321 22.0493 18.3568 22.0493 19.3705C22.0494 20.3841 21.2246 21.2088 20.2111 21.2088Z" />
</svg>
