<svg width="24" height="24" viewBox="0 0 24 24" fill="none" xmlns="http://www.w3.org/2000/svg">
<path d="M16.6978 13.3349C19.2882 10.7453 19.2882 6.53176 16.6978 3.9422C14.1074 1.3526 9.89258 1.3526 7.30216 3.9422C4.71178 6.53176 4.71178 10.7453 7.30216 13.3349C8.39864 14.431 9.78618 15.063 11.2183 15.2312V17.4547H9.65512C9.22344 17.4547 8.87352 17.8046 8.87352 18.2361C8.87352 18.6676 9.22344 19.0175 9.65512 19.0175H11.2183V21.2185C11.2184 21.6501 11.5683 21.9999 12 21.9999C12.4317 21.9999 12.7816 21.6501 12.7816 21.2185V19.0175H14.3448C14.7765 19.0175 15.1264 18.6676 15.1264 18.2361C15.1264 17.8046 14.7765 17.4547 14.3448 17.4547H12.7816V15.2312C14.2138 15.063 15.6013 14.431 16.6978 13.3349ZM8.40755 12.2298C6.42666 10.2496 6.42666 7.02746 8.40755 5.0472C10.3884 3.06701 13.6115 3.06689 15.5924 5.0472C17.5733 7.02746 17.5733 10.2496 15.5924 12.2298C13.6116 14.2101 10.3884 14.2101 8.40755 12.2298Z" fill="#999999"/>
</svg>
