<svg width="20" height="18" viewBox="0 0 20 18" xmlns="http://www.w3.org/2000/svg">
<path d="M11.822 1.22513L11.822 1.2251C12.553 0.85449 13.3409 0.666667 14.1695 0.666667C17.0212 0.666667 19.3333 2.96833 19.3333 5.78523C19.3333 7.80193 18.2573 10.0443 15.9445 12.4562C14.0259 14.457 11.6648 16.139 10 17.208C8.33517 16.139 5.97407 14.457 4.05554 12.4562C1.74268 10.0443 0.666667 7.80193 0.666667 5.78523C0.666667 2.96832 2.97883 0.666667 5.83043 0.666667C6.65909 0.666667 7.44697 0.854489 8.17801 1.22511L8.17804 1.22513C8.67477 1.47691 9.13246 1.81229 9.5254 2.21061L10 2.69169L10.4746 2.2106C10.8675 1.81229 11.3252 1.47691 11.822 1.22513Z" stroke-width="1.33333"/>
</svg>
