<svg width="16" height="16" viewBox="0 0 16 16" fill="none" xmlns="http://www.w3.org/2000/svg">
<path d="M9.46864 6.53035C9.3107 6.37147 9.13557 6.23064 8.94652 6.11042C8.44578 5.78978 7.86364 5.61939 7.26903 5.61939C6.44374 5.61785 5.65198 5.94576 5.06943 6.53035L2.24327 9.35872C1.66171 9.94141 1.33484 10.7309 1.33432 11.5541C1.33323 13.272 2.72496 14.6656 4.44288 14.6667C5.26689 14.6695 6.05792 14.3432 6.64027 13.7602L8.97318 11.4272C9.01557 11.3852 9.03924 11.3279 9.0389 11.2682C9.0382 11.1455 8.93813 11.0466 8.81542 11.0473H8.72656C8.23915 11.049 7.75608 10.9554 7.3046 10.7718C7.22141 10.7376 7.1258 10.7569 7.06243 10.8207L5.38495 12.5004C4.86405 13.0213 4.01951 13.0213 3.49862 12.5004C2.97772 11.9795 2.97772 11.1349 3.49862 10.614L6.3359 7.77901C6.85637 7.25918 7.69953 7.25918 8.22001 7.77901C8.57078 8.10913 9.11792 8.10913 9.46867 7.77901C9.61957 7.62796 9.71107 7.42764 9.7264 7.21465C9.74263 6.96014 9.64876 6.71089 9.46864 6.53035Z" fill="#999999"/>
<path d="M13.7542 2.24442C12.5394 1.02961 10.5698 1.02961 9.35502 2.24442L7.02431 4.57288C6.96032 4.63719 6.94186 4.73392 6.97766 4.81729C7.01304 4.90089 7.09573 4.95456 7.1865 4.95281H7.2687C7.75554 4.95193 8.23782 5.04626 8.68844 5.23055C8.77163 5.26479 8.86724 5.24547 8.93061 5.18168L10.6036 3.51086C11.1245 2.98996 11.9691 2.98996 12.49 3.51086C13.0109 4.03175 13.0109 4.87629 12.49 5.39718L10.4059 7.47902L10.3881 7.49902L9.65936 8.22334C9.13888 8.74317 8.29573 8.74317 7.77525 8.22334C7.42448 7.89322 6.87734 7.89322 6.52659 8.22334C6.37472 8.37553 6.28315 8.5776 6.26885 8.79212C6.2526 9.04663 6.34647 9.29588 6.52659 9.47645C6.78376 9.73471 7.08464 9.94532 7.41531 10.0986C7.46197 10.1208 7.50863 10.1385 7.55529 10.1585C7.60195 10.1785 7.65082 10.1941 7.69747 10.2119C7.74413 10.2296 7.793 10.2452 7.83966 10.2585L7.97076 10.2941C8.05962 10.3163 8.14851 10.3341 8.23959 10.3496C8.34931 10.3659 8.45981 10.3763 8.57065 10.3807H8.72617H8.7395L8.87281 10.3652C8.92168 10.363 8.97279 10.3518 9.03057 10.3518H9.1061L9.25941 10.3296L9.33051 10.3163L9.45937 10.2896H9.48382C10.0296 10.1526 10.5279 9.86997 10.9258 9.472L13.7541 6.64363C14.969 5.42882 14.969 3.45923 13.7542 2.24442Z" fill="#999999"/>
</svg>
