<svg width="16" height="16" viewBox="0 0 16 16" fill="none" xmlns="http://www.w3.org/2000/svg">
<path d="M11.3333 2.33344H4.66665C2.66665 2.33344 1.33332 3.33344 1.33332 5.66677V10.3334C1.33332 12.6668 2.66665 13.6668 4.66665 13.6668H11.3333C13.3333 13.6668 14.6667 12.6668 14.6667 10.3334V5.66677C14.6667 3.33344 13.3333 2.33344 11.3333 2.33344ZM11.6467 6.39344L9.55999 8.0601C9.11999 8.41344 8.55999 8.58677 7.99999 8.58677C7.43999 8.58677 6.87332 8.41344 6.43999 8.0601L4.35332 6.39344C4.13999 6.2201 4.10665 5.9001 4.27332 5.68677C4.44665 5.47343 4.75999 5.43343 4.97332 5.60677L7.05999 7.27344C7.56665 7.6801 8.42665 7.6801 8.93332 7.27344L11.02 5.60677C11.2333 5.43343 11.5533 5.46677 11.72 5.68677C11.8933 5.9001 11.86 6.2201 11.6467 6.39344Z" fill="#999999"/>
</svg>
