<svg width="16" height="16" viewBox="0 0 16 16" fill="none" xmlns="http://www.w3.org/2000/svg">
<path d="M14.6467 12.22C14.6467 12.46 14.5933 12.7067 14.48 12.9467C14.3667 13.1867 14.22 13.4133 14.0267 13.6267C13.7 13.9867 13.34 14.2467 12.9333 14.4133C12.5333 14.58 12.1 14.6667 11.6333 14.6667C10.9533 14.6667 10.2267 14.5067 9.45999 14.18C8.69332 13.8533 7.92666 13.4133 7.16666 12.86C6.39999 12.3 5.67332 11.68 4.97999 10.9933C4.29332 10.3 3.67332 9.57334 3.11999 8.81334C2.57332 8.05334 2.13332 7.29334 1.81332 6.54001C1.49332 5.78001 1.33332 5.05334 1.33332 4.36001C1.33332 3.90668 1.41332 3.47334 1.57332 3.07334C1.73332 2.66668 1.98665 2.29334 2.33999 1.96001C2.76665 1.54001 3.23332 1.33334 3.72665 1.33334C3.91332 1.33334 4.09999 1.37334 4.26665 1.45334C4.43999 1.53334 4.59332 1.65334 4.71332 1.82668L6.25999 4.00668C6.37999 4.17334 6.46665 4.32668 6.52666 4.47334C6.58666 4.61334 6.61999 4.75334 6.61999 4.88001C6.61999 5.04001 6.57332 5.20001 6.47999 5.35334C6.39332 5.50668 6.26665 5.66668 6.10665 5.82668L5.59999 6.35334C5.52665 6.42668 5.49332 6.51334 5.49332 6.62001C5.49332 6.67334 5.49999 6.72001 5.51332 6.77334C5.53332 6.82668 5.55332 6.86668 5.56666 6.90668C5.68666 7.12668 5.89332 7.41334 6.18665 7.76001C6.48665 8.10668 6.80665 8.46001 7.15332 8.81334C7.51332 9.16668 7.85999 9.49334 8.21332 9.79334C8.55999 10.0867 8.84666 10.2867 9.07332 10.4067C9.10666 10.42 9.14666 10.44 9.19332 10.46C9.24666 10.48 9.29999 10.4867 9.35999 10.4867C9.47332 10.4867 9.55999 10.4467 9.63332 10.3733L10.14 9.87334C10.3067 9.70668 10.4667 9.58001 10.62 9.50001C10.7733 9.40668 10.9267 9.36001 11.0933 9.36001C11.22 9.36001 11.3533 9.38668 11.5 9.44668C11.6467 9.50668 11.8 9.59334 11.9667 9.70668L14.1733 11.2733C14.3467 11.3933 14.4667 11.5333 14.54 11.7C14.6067 11.8667 14.6467 12.0333 14.6467 12.22Z" fill="#999999"/>
</svg>
