<svg width="32" height="32" viewBox="0 0 32 32" fill="none" xmlns="http://www.w3.org/2000/svg">
<path d="M16.049 10.9946H15.7642C15.63 10.9894 15.499 10.9547 15.3814 10.8932C15.2638 10.8318 15.1629 10.7452 15.0866 10.6404C15.0104 10.5355 14.9609 10.4153 14.942 10.2892C14.9231 10.1631 14.9355 10.0346 14.978 9.91378C15.3768 8.96267 15.7414 7.98994 16.0376 7.03883C16.2883 6.30388 17.2682 4.00177 19.7294 4.00177C20.6885 3.97261 21.6208 4.3056 22.3214 4.92767C23.0221 5.54973 23.434 6.41005 23.4667 7.31984C23.4667 9.4058 20.9713 10.2596 20.0484 10.5623C18.7436 10.8852 17.397 11.0308 16.049 10.9946ZM19.718 5.59055C18.4076 5.59055 17.8151 7.02802 17.667 7.47115C17.4619 8.09802 17.2454 8.72489 17.0061 9.35176C17.823 9.34684 18.6355 9.23778 19.4217 9.02752C20.0712 8.81136 21.7006 8.22772 21.7006 7.28742C21.6655 6.81632 21.4394 6.37643 21.0697 6.06005C20.7001 5.74367 20.2156 5.5754 19.718 5.59055Z" fill="#999999"/>
<path d="M15.8709 10.9979C14.5503 11.0199 13.2329 10.8675 11.9569 10.5451C9.11548 9.67166 8.53351 8.30227 8.53351 7.31026C8.53828 6.89127 8.63274 6.47753 8.8112 6.09394C8.98966 5.71035 9.24843 5.36486 9.57193 5.07826C10.2913 4.39445 11.2674 4.0069 12.2878 4C14.2049 4 15.1748 5.69287 15.8938 6.90053C16.3609 7.89052 16.7426 8.91462 17.0349 9.96279C17.0702 10.0817 17.0763 10.2068 17.0525 10.3282C17.0288 10.4497 16.9759 10.5645 16.8979 10.6637C16.8224 10.7638 16.7233 10.8461 16.6085 10.9041C16.4937 10.9621 16.3662 10.9942 16.2361 10.9979H15.8709ZM12.1623 5.60661C11.6204 5.62867 11.1088 5.84908 10.7359 6.22122C10.5732 6.35676 10.4417 6.52237 10.3495 6.70783C10.2572 6.89329 10.2062 7.09466 10.1995 7.29948C10.1995 7.95722 11.044 8.5934 12.4818 9.03548C13.3208 9.2404 14.1828 9.34901 15.0493 9.35896C14.8648 8.78474 14.6398 8.22279 14.3761 7.67687L15.0493 7.2887L14.3076 7.67687C13.6457 6.48 13.0752 5.62818 12.1965 5.60661H12.1623Z" fill="#999999"/>
<path d="M26.6667 14.3636V13C26.6667 12.2044 26.3326 11.4413 25.7379 10.8787C25.1432 10.3161 24.3366 10 23.4955 10H8.5047C7.66366 10 6.85707 10.3161 6.26236 10.8787C5.66766 11.4413 5.33356 12.2044 5.33356 13V14.3636H26.6667ZM16.865 16V28H23.4955C24.3366 28 25.1432 27.6839 25.7379 27.1213C26.3326 26.5587 26.6667 25.7956 26.6667 25V16H16.865ZM15.1353 16H5.33356V25C5.33356 25.7956 5.66766 26.5587 6.26236 27.1213C6.85707 27.6839 7.66366 28 8.5047 28H15.1353V16Z" fill="#999999"/>
</svg>
