<svg width="24" height="24" viewBox="0 0 24 24" xmlns="http://www.w3.org/2000/svg">
<path fill-rule="evenodd" clip-rule="evenodd" d="M14.1941 6.7496C15.2296 6.7496 16.0689 5.91023 16.0689 4.8748C16.0689 3.83938 15.2296 3 14.1941 3C13.1587 3 12.3193 3.83938 12.3193 4.8748C12.3193 5.91023 13.1587 6.7496 14.1941 6.7496ZM10.5079 8.6244C10.0165 8.6244 9.54607 8.82125 9.20106 9.16926L9.20454 9.17278L8.39951 9.9848C7.96389 10.4242 7.25643 10.4242 6.82081 9.9848C6.38518 9.54539 6.38518 8.8318 6.82081 8.39239L7.62933 7.58037C8.39254 6.80701 9.43107 6.37463 10.5114 6.37463C10.9192 6.37463 11.3234 6.43791 11.7103 6.55743L13.4075 7.08471C14.676 7.47842 15.7041 8.42051 16.2129 9.65437L16.4324 10.1817C16.6032 10.6 17.0109 10.8742 17.4605 10.8742H18.2028C18.8197 10.8742 19.318 11.3768 19.318 11.999C19.318 12.6212 18.8197 13.1239 18.2028 13.1239H17.4605C16.1083 13.1239 14.8921 12.3049 14.3693 11.0464L14.1916 10.614L13.1147 13.5106L15.0942 14.7585C15.725 15.1557 16.0212 15.9291 15.8156 16.6532L14.8154 20.1826C14.6446 20.7801 14.0278 21.1282 13.4353 20.9559C12.8429 20.7837 12.4979 20.1615 12.6686 19.5639L13.5538 16.4423L10.5498 14.5476C9.67502 13.9957 9.29167 12.913 9.61577 11.9287L10.7031 8.63494C10.6404 8.62791 10.5741 8.6244 10.5079 8.6244ZM6.1152 16.2065L8.03705 15.978L9.18211 13.5106C9.44678 14.1638 9.90898 14.7161 10.5029 15.0889L10.834 15.2999L10.2919 16.5478C10.0235 17.1559 9.38578 17.9623 8.72363 17.9623L6.1152 18.1908C5.49836 18.1908 5 17.6881 5 17.0659C5 16.4437 5.49836 16.2065 6.1152 16.2065Z"/>
</svg>
