<svg width="32" height="32" viewBox="0 0 32 32" fill="none" xmlns="http://www.w3.org/2000/svg">
<path d="M4.16658 13.6986C4.0903 13.6212 4.03734 13.5239 4.01378 13.4177C3.99021 13.3116 3.99698 13.201 4.03332 13.0986C4.06289 13.0021 4.119 12.9159 4.19523 12.8498C4.27146 12.7837 4.36473 12.7404 4.4644 12.7248L11.39 11.6709C11.6154 11.6338 11.8282 11.5421 12.0099 11.4038C12.1916 11.2655 12.3368 11.0848 12.4326 10.8775L15.5179 4.31683C15.5587 4.22269 15.6261 4.14252 15.7118 4.0862C15.7975 4.02988 15.8979 3.99988 16.0004 3.99988C16.103 3.99988 16.2033 4.02988 16.2891 4.0862C16.3748 4.14252 16.4422 4.22269 16.4829 4.31683L19.5682 10.8745C19.6643 11.0828 19.81 11.2643 19.9925 11.4031C20.175 11.542 20.3888 11.6339 20.6151 11.6709L27.5356 12.7253C27.6353 12.7408 27.7285 12.7841 27.8048 12.8502C27.881 12.9163 27.9371 13.0025 27.9667 13.099C28.003 13.2014 28.0098 13.3121 27.9862 13.4182C27.9627 13.5243 27.9097 13.6216 27.8334 13.699L24.9482 16.6491C21.6557 15.6609 18.2377 15.1535 14.8002 15.1426C10.9898 15.1426 8.522 15.8408 6.91979 16.5167L4.16658 13.6986Z" fill="#999999"/>
<path d="M5.61494 18.1223C6.85206 17.4335 9.427 15.9998 14.8001 15.9998C20.3357 15.9998 25.2687 17.4999 26.3927 18.127C26.4816 18.1776 26.5493 18.2585 26.5833 18.355C26.6173 18.4514 26.6154 18.5569 26.5778 18.652L25.6861 21.0325C22.1576 19.9584 18.4884 19.4178 14.8001 19.4287C9.83709 19.4287 7.26215 20.4368 6.28 20.9442L5.42297 18.652C5.38556 18.5554 5.38439 18.4486 5.41969 18.3512C5.45498 18.2538 5.52434 18.1725 5.61494 18.1223ZM23.4857 21.3184C23.9262 21.4243 24.3647 21.5386 24.8008 21.6613L23.6378 22.2429L23.4857 21.3184ZM8.36043 22.2442L6.98919 21.5584C7.49901 21.3364 8.02468 21.1527 8.56183 21.009L8.36043 22.2442ZM5.62994 24.2291V22.8575C5.62992 22.7719 5.60428 22.6883 5.55632 22.6174C5.50835 22.5465 5.44027 22.4916 5.36083 22.4598L4.00159 21.918L5.4024 21.0437L5.65651 21.7222C5.69718 21.8209 5.77374 21.9005 5.87077 21.945L5.86562 21.9553L7.75408 22.8983L5.62994 24.2291Z" fill="#999999"/>
<path d="M23.3704 27.9035C23.2928 27.9604 23.2004 27.9936 23.1044 27.9991C23.0083 28.0045 22.9127 27.9821 22.8292 27.9344L16.6594 24.5291C16.4571 24.4179 16.23 24.3596 15.9991 24.3596C15.7682 24.3596 15.5411 24.4179 15.3388 24.5291L9.17201 27.9344C9.08843 27.982 8.99287 28.0044 8.89685 27.9989C8.80083 27.9934 8.70843 27.9603 8.6308 27.9035C8.54082 27.8402 8.47093 27.7524 8.42945 27.6505C8.38796 27.5486 8.37664 27.4369 8.39683 27.3287L9.46812 20.7869C11.2229 20.4332 13.0101 20.2653 14.8001 20.2859C17.4162 20.2914 20.0245 20.569 22.5832 21.1139L23.6022 27.3287C23.6225 27.4367 23.6115 27.5482 23.5704 27.6501C23.5293 27.7519 23.4599 27.8399 23.3704 27.9035ZM26.6391 22.4598C26.5597 22.4916 26.4916 22.5465 26.4436 22.6174C26.3957 22.6883 26.37 22.7719 26.37 22.8575V24.2256L24.2463 22.9004L26.1339 21.9574L26.1317 21.9527C26.2299 21.907 26.3066 21.8252 26.346 21.7243L26.6001 21.0454L27.9983 21.9146L26.6391 22.4598Z" fill="#999999"/>
</svg>
