<svg width="24" height="24" viewBox="0 0 24 24"  xmlns="http://www.w3.org/2000/svg">
<path d="M23.8529 8.76539C23.7765 8.57427 23.5853 8.45961 23.356 8.53605L22.3622 8.88005C21.3302 9.22406 20.1835 9.10939 19.228 8.65072L19.3044 8.57427C19.9542 7.92449 19.9542 6.85426 19.3044 6.20447L16.4377 3.33778C15.9408 2.76445 15.0235 2.76445 14.4884 3.29956L12.8066 4.98135C12.6919 5.09602 12.6155 5.24891 12.6155 5.44002C12.6155 5.63114 12.6919 5.78403 12.8066 5.8987C13.0359 6.12803 13.3799 6.16625 13.6093 5.97514L15.4822 4.75202L16.5524 5.82225L15.5586 6.81604C14.9471 6.77781 14.2973 6.85426 13.6857 7.04537L12.6919 7.38937C12.5008 7.46582 12.3861 7.65693 12.4626 7.88627C12.539 8.07738 12.7301 8.19205 12.9595 8.1156L13.9533 7.7716C15.3293 7.31293 16.8582 7.61871 17.9284 8.61249C18.8075 9.41517 19.9542 9.83562 21.1391 9.83562C21.636 9.83562 22.1711 9.75917 22.668 9.60628L23.6618 9.26228C23.8147 9.18583 23.9293 8.9565 23.8529 8.76539Z" />
<path d="M20.8336 5.82225C21.9038 5.82225 22.7447 4.98136 22.7447 3.91113C22.7447 2.8409 21.9038 2 20.8336 2C19.7634 2 18.9225 2.8409 18.9225 3.91113C18.9225 4.98136 19.7634 5.82225 20.8336 5.82225Z" />
<path d="M11.8946 20.9723C11.6239 21.1805 11.2894 21.3093 10.9222 21.3093C10.0375 21.3093 9.31763 20.5894 9.31763 19.7047C9.31763 18.8198 10.0375 18.0999 10.9222 18.0999C11.5899 18.0999 12.1626 18.5105 12.4041 19.0918L12.9065 18.5707C12.5108 17.8801 11.7752 17.4093 10.9222 17.4093C9.65439 17.4093 8.62695 18.4369 8.62695 19.7047C8.62695 20.9723 9.65439 22 10.9222 22C11.5187 22 12.0569 21.7669 12.4652 21.3936C12.3085 21.3411 12.1599 21.2576 12.0329 21.1353C11.9805 21.0847 11.9353 21.0294 11.8946 20.9723Z"/>
<path d="M15.3795 17.4268L14.1641 16.7209C14.7061 16.3816 14.5051 16.5072 15.0472 16.168L15.0301 16.3407C15.0009 16.6345 15.2174 16.9035 15.4901 16.9587C15.4966 16.96 17.6237 17.3216 17.7013 17.3216C17.9776 17.3216 18.2216 17.1219 18.2683 16.8402C18.3204 16.5266 18.1084 16.2302 17.7948 16.1783L16.2289 15.9182L16.3033 15.1709C16.3784 14.6934 16.411 14.5436 16.2327 14.2587L16.0085 13.9004C15.7189 13.4379 15.1083 13.2965 14.6447 13.5867L12.1914 15.1227C11.5889 15.5 11.295 16.2955 11.7869 16.8807C11.9791 17.1093 13.8477 18.2576 13.8477 18.2576L12.3344 19.8273C12.0695 20.1018 12.0774 20.5391 12.3521 20.8037C12.4807 20.9281 12.6526 20.9975 12.8314 20.9973C13.0125 20.9973 13.1932 20.9267 13.3286 20.7859L15.5296 18.5033C15.8402 18.182 15.7673 17.6521 15.3795 17.4268ZM17.9578 14.2913C18.4959 13.9543 18.6589 13.2452 18.322 12.7074C17.9853 12.1692 17.2761 12.0062 16.7382 12.343C16.2003 12.6798 16.0373 13.3886 16.3739 13.9264C16.7107 14.4647 17.4198 14.6279 17.9578 14.2913Z"/>
<path d="M17.7712 17.4093C16.4901 17.4093 15.4759 18.4662 15.4759 19.7047C15.4759 20.9723 16.5034 22 17.7712 22C19.0388 22 20.0665 20.9723 20.0665 19.7047C20.0665 18.4369 19.0388 17.4093 17.7712 17.4093ZM17.7712 21.3093C16.8865 21.3093 16.1666 20.5894 16.1666 19.7047C16.1666 18.8198 16.8865 18.0999 17.7712 18.0999C18.6559 18.0999 19.3758 18.8198 19.3758 19.7047C19.3758 20.5894 18.6559 21.3093 17.7712 21.3093Z" />
<path d="M8.03448 5.09783C8.03448 5.75582 7.50108 6.28922 6.84309 6.28922C6.1851 6.28922 5.65169 5.75582 5.65169 5.09783C5.65169 4.43984 6.1851 3.90643 6.84309 3.90643C7.50108 3.90643 8.03448 4.43984 8.03448 5.09783Z" />
<path d="M3.66968 7.82686C3.88893 7.60571 4.1879 7.48061 4.50017 7.48061C4.54225 7.48061 4.58433 7.48284 4.62419 7.48731L3.93322 9.58044C3.72726 10.2059 3.97087 10.894 4.52674 11.2447L6.43576 12.4487L5.87325 14.4324C5.76473 14.8122 5.98398 15.2075 6.36047 15.317C6.73695 15.4265 7.12895 15.2053 7.23746 14.8256L7.87306 12.5828C8.00373 12.1226 7.81548 11.6311 7.41463 11.3787L6.15672 10.5857L6.84104 8.74498L6.95399 9.01974C7.28619 9.81947 8.05909 10.34 8.91838 10.34H9.39009C9.78209 10.34 10.0988 10.0205 10.0988 9.62512C10.0988 9.22973 9.78209 8.91028 9.39009 8.91028H8.91838C8.63269 8.91028 8.37357 8.73604 8.26506 8.47021L8.12553 8.13513C7.8022 7.35105 7.14888 6.75237 6.34275 6.50218L5.26422 6.1671C5.01839 6.09115 4.7615 6.05094 4.50238 6.05094C3.81585 6.05094 3.15588 6.3257 2.67088 6.81715L2.15708 7.33317C1.88025 7.61241 1.88025 8.06588 2.15708 8.34512C2.43391 8.62435 2.88348 8.62435 3.16031 8.34512L3.67189 7.82909L3.66968 7.82686ZM2.92998 12.1536L1.70868 12.2988C1.31669 12.2988 1 12.4496 1 12.845C1 13.2404 1.31669 13.5598 1.70868 13.5598L3.36628 13.4146C3.78706 13.4146 4.19233 12.9022 4.36286 12.5157L4.70738 11.7227L4.49699 11.5887C4.11955 11.3518 3.82583 11.0008 3.65764 10.5857L2.92998 12.1536Z" />
</svg>
