<svg width="79" height="39" viewBox="0 0 79 39" fill="none" xmlns="http://www.w3.org/2000/svg">
<path d="M25.3856 12.2238V25.5342C25.3856 32.9583 19.3256 39 11.8771 39H5.6548C4.43977 39 3.45588 38.0176 3.45588 36.8065C3.45588 35.5969 4.43977 34.6145 5.6548 34.6145H11.8771C16.9003 34.6145 20.987 30.5407 20.987 25.5342V12.2238C20.987 11.0134 21.9725 10.0327 23.1867 10.0327C24.4017 10.0327 25.3856 11.0134 25.3856 12.2238ZM0 13.9794C0 6.57113 6.04582 0.543625 13.4776 0.543625H42.8155C44.0297 0.543625 45.0144 1.5252 45.0144 2.7348C45.0144 3.94598 44.0297 4.92755 42.8155 4.92755H13.4776C8.47111 4.92755 4.39861 8.98796 4.39861 13.9779C4.39861 18.9678 8.47111 23.0274 13.4776 23.0274C13.5172 23.0274 14.5288 23.0298 14.5676 23.0306C15.7272 23.0921 16.6478 24.05 16.6478 25.2209C16.6478 26.395 15.7217 27.3537 14.5565 27.4105C14.5209 27.4129 13.5133 27.4137 13.4776 27.4137C6.04582 27.4137 0 21.3862 0 13.9794Z" fill="white"/>
<path d="M43.0987 12.6682V25.038C43.0987 26.2484 42.1148 27.23 40.9006 27.23C39.6847 27.23 38.7001 26.2484 38.7001 25.038V12.6682C38.7001 11.4578 39.6847 10.477 40.9006 10.477C42.1148 10.477 43.0987 11.4586 43.0987 12.6682Z" fill="white"/>
<path d="M78.5311 14.1432V25.0383C78.5311 26.2494 77.5472 27.2302 76.3322 27.2302C75.1171 27.2302 74.1332 26.2494 74.1332 25.0383V14.1432C74.1332 9.06251 69.9863 4.92793 64.8888 4.92793H63.3659C62.1516 4.92793 61.1662 3.94715 61.1662 2.73597C61.1662 1.52478 62.1516 0.544004 63.3659 0.544004H64.8888C72.4108 0.544004 78.5311 6.64409 78.5311 14.1432Z" fill="white"/>
<path d="M60.7835 14.1432V25.0383C60.7835 26.2494 59.7988 27.2302 58.5838 27.2302C57.3688 27.2302 56.3849 26.2494 56.3849 25.0383V14.1432C56.3849 9.06251 52.238 4.92793 47.1412 4.92793H39.5646C38.3488 4.92793 37.3649 3.94715 37.3649 2.73597C37.3649 1.52478 38.3488 0.544004 39.5646 0.544004H47.1412C54.6633 0.544004 60.7835 6.64409 60.7835 14.1432Z" fill="white"/>
</svg>
